SplineFontDB: 3.0
FontName: OSP-DIN
FullName: OSP-DIN
FamilyName: OSP-DIN
Weight: Engschrift
Copyright: Created by Harrisson, Ludi and Antoine Begon with FontForge 2.0 (http://fontforge.sf.net) - Brussels - 2011

StartChar: exclam
Encoding: 33 33 4
Width: 434
Flags: W
LayerCount: 2
Fore
SplineSet
115 1434 m 1,0,-1
 319 1434 l 1,1,-1
 319 1024 l 1,2,-1
 268 307 l 1,3,-1
 166 307 l 1,4,-1
 115 1024 l 1,5,-1
 115 1434 l 1,0,-1
115 205 m 1,6,-1
 319 205 l 1,7,-1
 319 0 l 1,8,-1
 115 0 l 1,9,-1
 115 205 l 1,6,-1
EndSplineSet
Validated: 1
EndChar

StartChar: quotedbl
Encoding: 34 34 5
Width: 618
Flags: W
LayerCount: 2
Fore
SplineSet
346 1434 m 1,0,-1
 510 1434 l 1,1,-1
 510 1106 l 1,2,-1
 346 1106 l 1,3,-1
 346 1434 l 1,0,-1
109 1434 m 1,4,-1
 272 1434 l 1,5,-1
 272 1106 l 1,6,-1
 109 1106 l 1,7,-1
 109 1434 l 1,4,-1
EndSplineSet
Validated: 1
EndChar

StartChar: percent
Encoding: 37 37 6
Width: 856
Flags: W
LayerCount: 2
Fore
SplineSet
578 1434 m 1,0,-1
 738 1434 l 1,1,-1
 268 -203 l 1,2,-1
 106 -203 l 1,3,-1
 578 1434 l 1,0,-1
240 1394 m 256,4,5
 304 1394 304 1394 349 1350 c 128,-1,6
 394 1306 394 1306 395 1242 c 1,7,-1
 395 1096 l 2,8,9
 395 1031 395 1031 349.5 986 c 128,-1,10
 304 941 304 941 240 941 c 0,11,12
 177 941 177 941 132.5 985 c 128,-1,13
 88 1029 88 1029 86 1092 c 1,14,-1
 86 1096 l 1,15,-1
 86 1240 l 2,16,17
 86 1304 86 1304 131 1349 c 128,-1,18
 176 1394 176 1394 240 1394 c 256,4,5
240.5 1290 m 128,-1,20
 219 1290 219 1290 204 1275.5 c 128,-1,21
 189 1261 189 1261 189 1240 c 2,22,-1
 189 1096 l 2,23,24
 189 1074 189 1074 204 1059 c 128,-1,25
 219 1044 219 1044 240 1044 c 256,26,27
 261 1044 261 1044 276.5 1058.5 c 128,-1,28
 292 1073 292 1073 292 1094 c 2,29,-1
 292 1240 l 2,30,31
 292 1261 292 1261 277 1275.5 c 128,-1,19
 262 1290 262 1290 240.5 1290 c 128,-1,20
616 271 m 0,32,33
 679 271 679 271 724 227 c 128,-1,34
 769 183 769 183 770 120 c 1,35,-1
 770 -28 l 2,36,37
 770 -92 770 -92 724.5 -137 c 128,-1,38
 679 -182 679 -182 616 -182 c 0,39,40
 552 -182 552 -182 507.5 -138 c 128,-1,41
 463 -94 463 -94 461 -32 c 1,42,-1
 461 -28 l 1,43,-1
 461 116 l 2,44,45
 461 181 461 181 506 226 c 128,-1,46
 551 271 551 271 616 271 c 0,32,33
615.5 168 m 128,-1,48
 594 168 594 168 579 153 c 128,-1,49
 564 138 564 138 564 118 c 2,50,-1
 564 -28 l 2,51,52
 564 -49 564 -49 579 -63.5 c 128,-1,53
 594 -78 594 -78 616 -78 c 0,54,55
 636 -78 636 -78 651 -64 c 128,-1,56
 666 -50 666 -50 666 -30 c 2,57,-1
 666 116 l 2,58,59
 666 138 666 138 651.5 153 c 128,-1,47
 637 168 637 168 615.5 168 c 128,-1,48
EndSplineSet
Validated: 1
EndChar

StartChar: quotesingle
Encoding: 39 39 7
Width: 380
Flags: W
LayerCount: 2
Fore
SplineSet
109 1434 m 1,0,-1
 272 1434 l 1,1,-1
 272 1106 l 1,2,-1
 109 1106 l 1,3,-1
 109 1434 l 1,0,-1
EndSplineSet
Validated: 1
EndChar

StartChar: parenleft
Encoding: 40 40 8
Width: 448
Flags: W
LayerCount: 2
Fore
SplineSet
244 1434 m 1,0,1
 244 1434 244 1434 346 1434 c 1,2,3
 346 1430 346 1430 336 1375.5 c 128,-1,4
 326 1321 326 1321 310.5 1236 c 128,-1,5
 295 1151 295 1151 279.5 1049.5 c 128,-1,6
 264 948 264 948 254 830.5 c 128,-1,7
 244 713 244 713 244 614 c 0,8,9
 244 462 244 462 269.5 257.5 c 128,-1,10
 295 53 295 53 317.5 -63.5 c 128,-1,11
 340 -180 340 -180 346 -205 c 1,12,-1
 244 -205 l 1,13,14
 39 205 39 205 39 614 c 0,15,16
 39 764 39 764 65.5 912.5 c 128,-1,17
 92 1061 92 1061 134 1174.5 c 128,-1,18
 176 1288 176 1288 198.5 1339.5 c 128,-1,19
 221 1391 221 1391 242 1430 c 1,20,21
 242 1430 242 1430 244 1434 c 1,0,1
EndSplineSet
Validated: 1
EndChar

StartChar: plus
Encoding: 43 43 10
Width: 1013
Flags: W
LayerCount: 2
Fore
SplineSet
918 617 m 1,0,-1
 918 411 l 1,1,-1
 610 411 l 1,2,-1
 610 103 l 1,3,-1
 404 103 l 1,4,-1
 404 411 l 1,5,-1
 96 411 l 1,6,-1
 96 617 l 1,7,-1
 404 617 l 1,8,-1
 404 924 l 1,9,-1
 610 924 l 1,10,-1
 610 617 l 1,11,-1
 918 617 l 1,0,-1
EndSplineSet
Validated: 1
EndChar

StartChar: comma
Encoding: 44 44 11
Width: 376
Flags: W
LayerCount: 2
Fore
SplineSet
86 205 m 1,0,-1
 291 205 l 1,1,-1
 291 0 l 1,2,-1
 86 -205 l 1,3,-1
 86 205 l 1,0,-1
EndSplineSet
Validated: 1
EndChar

StartChar: hyphen
Encoding: 45 45 12
Width: 671
Flags: W
LayerCount: 2
Fore
SplineSet
90 729 m 1,0,-1
 582 729 l 1,1,-1
 582 565 l 1,2,-1
 90 565 l 1,3,-1
 90 729 l 1,0,-1
EndSplineSet
Validated: 1
EndChar

StartChar: period
Encoding: 46 46 13
Width: 376
Flags: W
LayerCount: 2
Fore
SplineSet
86 205 m 1,0,-1
 291 205 l 1,1,-1
 291 0 l 1,2,-1
 86 0 l 1,3,-1
 86 205 l 1,0,-1
EndSplineSet
Validated: 1
EndChar

StartChar: zero
Encoding: 48 48 15
Width: 753
Flags: W
LayerCount: 2
Fore
SplineSet
377 1434 m 128,-1,1
 504 1434 504 1434 594 1343.5 c 128,-1,2
 684 1253 684 1253 684 1126 c 2,3,-1
 684 307 l 2,4,5
 684 180 684 180 594 90 c 128,-1,6
 504 0 504 0 377 0 c 128,-1,7
 250 0 250 0 160 90 c 128,-1,8
 70 180 70 180 70 307 c 2,9,-1
 70 1126 l 2,10,11
 70 1253 70 1253 160 1343.5 c 128,-1,0
 250 1434 250 1434 377 1434 c 128,-1,1
377 1229 m 128,-1,13
 334 1229 334 1229 304 1199 c 128,-1,14
 274 1169 274 1169 274 1126 c 2,15,-1
 274 307 l 2,16,17
 274 264 274 264 304 234.5 c 128,-1,18
 334 205 334 205 377 205 c 128,-1,19
 420 205 420 205 449.5 234.5 c 128,-1,20
 479 264 479 264 479 307 c 2,21,-1
 479 1126 l 2,22,23
 479 1169 479 1169 449.5 1199 c 128,-1,12
 420 1229 420 1229 377 1229 c 128,-1,13
EndSplineSet
Validated: 1
EndChar

StartChar: one
Encoding: 49 49 16
Width: 753
Flags: W
LayerCount: 2
Fore
SplineSet
313 1434 m 1,0,-1
 518 1434 l 1,1,-1
 518 0 l 1,2,-1
 313 0 l 1,3,-1
 313 1229 l 1,4,-1
 109 1024 l 1,5,-1
 109 1229 l 1,6,-1
 313 1434 l 1,0,-1
EndSplineSet
Validated: 1
EndChar

StartChar: two
Encoding: 50 50 17
Width: 753
Flags: W
LayerCount: 2
Fore
SplineSet
377 1434 m 128,-1,1
 504 1434 504 1434 594 1343.5 c 128,-1,2
 684 1253 684 1253 684 1126 c 0,3,4
 684 1058 684 1058 657 999 c 2,5,-1
 299 205 l 1,6,-1
 684 205 l 1,7,-1
 684 0 l 1,8,-1
 70 0 l 1,9,-1
 70 205 l 1,10,-1
 455 1047 l 1,11,12
 480 1106 480 1106 479 1126 c 1,13,14
 479 1169 479 1169 449.5 1199 c 128,-1,15
 420 1229 420 1229 377 1229 c 128,-1,16
 334 1229 334 1229 304 1199 c 128,-1,17
 274 1169 274 1169 274 1126 c 1,18,-1
 70 1126 l 1,19,20
 70 1253 70 1253 160 1343.5 c 128,-1,0
 250 1434 250 1434 377 1434 c 128,-1,1
EndSplineSet
Validated: 33
EndChar

StartChar: three
Encoding: 51 51 18
Width: 753
Flags: W
LayerCount: 2
Fore
SplineSet
377 1434 m 128,-1,1
 504 1434 504 1434 594 1343.5 c 128,-1,2
 684 1253 684 1253 684 1126 c 2,3,-1
 684 922 l 2,4,5
 684 805 684 805 606 717 c 1,6,7
 684 629 684 629 684 512 c 2,8,-1
 684 307 l 2,9,10
 684 180 684 180 594 90 c 128,-1,11
 504 0 504 0 377 0 c 128,-1,12
 250 0 250 0 160 90 c 128,-1,13
 70 180 70 180 70 307 c 2,14,-1
 70 410 l 1,15,-1
 274 410 l 1,16,-1
 274 307 l 2,17,18
 274 264 274 264 304 234.5 c 128,-1,19
 334 205 334 205 377 205 c 128,-1,20
 420 205 420 205 449.5 234.5 c 128,-1,21
 479 264 479 264 479 307 c 2,22,-1
 479 512 l 2,23,24
 479 555 479 555 449.5 584.5 c 128,-1,25
 420 614 420 614 377 614 c 1,26,-1
 377 819 l 1,27,28
 420 819 420 819 449.5 849 c 128,-1,29
 479 879 479 879 479 922 c 2,30,-1
 479 1126 l 2,31,32
 479 1169 479 1169 449.5 1199 c 128,-1,33
 420 1229 420 1229 377 1229 c 128,-1,34
 334 1229 334 1229 304 1199 c 128,-1,35
 274 1169 274 1169 274 1126 c 2,36,-1
 274 1024 l 1,37,-1
 70 1024 l 1,38,-1
 70 1126 l 2,39,40
 70 1253 70 1253 160 1343.5 c 128,-1,0
 250 1434 250 1434 377 1434 c 128,-1,1
EndSplineSet
Validated: 1
EndChar

StartChar: four
Encoding: 52 52 19
Width: 651
Flags: W
LayerCount: 2
Fore
SplineSet
223 1434 m 1,0,-1
 428 1434 l 1,1,-1
 223 410 l 1,2,-1
 377 410 l 1,3,-1
 377 717 l 1,4,-1
 582 717 l 1,5,-1
 582 410 l 1,6,-1
 633 410 l 1,7,-1
 633 205 l 1,8,-1
 582 205 l 1,9,-1
 582 0 l 1,10,-1
 377 0 l 1,11,-1
 377 205 l 1,12,-1
 18 205 l 1,13,-1
 18 410 l 1,14,-1
 223 1434 l 1,0,-1
EndSplineSet
Validated: 1
EndChar

StartChar: five
Encoding: 53 53 20
Width: 753
Flags: W
LayerCount: 2
Fore
SplineSet
70 1434 m 1,0,-1
 582 1434 l 1,1,-1
 582 1229 l 1,2,-1
 274 1229 l 1,3,-1
 274 903 l 1,4,5
 323 921 323 921 377 922 c 1,6,7
 504 922 504 922 594 831.5 c 128,-1,8
 684 741 684 741 684 614 c 2,9,-1
 684 307 l 2,10,11
 684 180 684 180 594 90 c 128,-1,12
 504 0 504 0 377 0 c 128,-1,13
 250 0 250 0 160 90 c 128,-1,14
 70 180 70 180 70 307 c 2,15,-1
 70 410 l 1,16,-1
 274 410 l 1,17,-1
 274 307 l 2,18,19
 274 264 274 264 304 234.5 c 128,-1,20
 334 205 334 205 377 205 c 128,-1,21
 420 205 420 205 449.5 234.5 c 128,-1,22
 479 264 479 264 479 307 c 2,23,-1
 479 614 l 2,24,25
 479 657 479 657 449.5 687 c 128,-1,26
 420 717 420 717 377 717 c 128,-1,27
 334 717 334 717 304 687 c 128,-1,28
 274 657 274 657 274 614 c 1,29,-1
 70 614 l 1,30,-1
 70 1229 l 1,31,-1
 70 1434 l 1,0,-1
EndSplineSet
Validated: 1
EndChar

StartChar: six
Encoding: 54 54 21
Width: 753
Flags: W
LayerCount: 2
Fore
SplineSet
377 1434 m 128,-1,1
 504 1434 504 1434 594 1343.5 c 128,-1,2
 684 1253 684 1253 684 1126 c 2,3,-1
 684 1024 l 1,4,-1
 479 1024 l 1,5,-1
 479 1126 l 2,6,7
 479 1169 479 1169 449.5 1199 c 128,-1,8
 420 1229 420 1229 377 1229 c 128,-1,9
 334 1229 334 1229 304 1199 c 128,-1,10
 274 1169 274 1169 274 1126 c 2,11,-1
 274 903 l 1,12,13
 323 921 323 921 377 922 c 1,14,15
 504 922 504 922 594 831.5 c 128,-1,16
 684 741 684 741 684 614 c 2,17,-1
 684 307 l 2,18,19
 684 180 684 180 594 90 c 128,-1,20
 504 0 504 0 377 0 c 128,-1,21
 250 0 250 0 160 90 c 128,-1,22
 70 180 70 180 70 307 c 2,23,-1
 70 614 l 1,24,-1
 70 1126 l 2,25,26
 70 1253 70 1253 160 1343.5 c 128,-1,0
 250 1434 250 1434 377 1434 c 128,-1,1
377 717 m 128,-1,28
 334 717 334 717 304 687 c 128,-1,29
 274 657 274 657 274 614 c 2,30,-1
 274 307 l 2,31,32
 274 264 274 264 304 234.5 c 128,-1,33
 334 205 334 205 377 205 c 128,-1,34
 420 205 420 205 449.5 234.5 c 128,-1,35
 479 264 479 264 479 307 c 2,36,-1
 479 614 l 2,37,38
 479 657 479 657 449.5 687 c 128,-1,27
 420 717 420 717 377 717 c 128,-1,28
EndSplineSet
Validated: 1
EndChar

StartChar: seven
Encoding: 55 55 22
Width: 751
Flags: W
LayerCount: 2
Fore
SplineSet
70 1128 m 1,0,-1
 70 1434 l 1,1,-1
 682 1434 l 1,2,-1
 682 1231 l 1,3,-1
 272 2 l 1,4,-1
 70 2 l 1,5,-1
 479 1231 l 1,6,-1
 272 1231 l 1,7,-1
 272 1128 l 1,8,-1
 70 1128 l 1,0,-1
EndSplineSet
Validated: 1
EndChar

StartChar: eight
Encoding: 56 56 23
Width: 753
Flags: W
LayerCount: 2
Fore
SplineSet
377 1434 m 128,-1,1
 504 1434 504 1434 594 1343.5 c 128,-1,2
 684 1253 684 1253 684 1126 c 2,3,-1
 684 999 l 2,4,5
 684 880 684 880 606 795 c 1,6,7
 684 707 684 707 684 590 c 2,8,-1
 684 307 l 2,9,10
 684 180 684 180 594 90 c 128,-1,11
 504 0 504 0 377 0 c 128,-1,12
 250 0 250 0 160 90 c 128,-1,13
 70 180 70 180 70 307 c 2,14,-1
 70 590 l 2,15,16
 70 707 70 707 147 795 c 1,17,18
 69 881 69 881 70 999 c 1,19,-1
 70 1126 l 2,20,21
 70 1253 70 1253 160 1343.5 c 128,-1,0
 250 1434 250 1434 377 1434 c 128,-1,1
377 1229 m 128,-1,23
 334 1229 334 1229 304 1199 c 128,-1,24
 274 1169 274 1169 274 1126 c 2,25,-1
 274 999 l 2,26,27
 274 954 274 954 304 925.5 c 128,-1,28
 334 897 334 897 377 897 c 128,-1,29
 420 897 420 897 449.5 925.5 c 128,-1,30
 479 954 479 954 479 999 c 2,31,-1
 479 1126 l 2,32,33
 479 1169 479 1169 449.5 1199 c 128,-1,22
 420 1229 420 1229 377 1229 c 128,-1,23
377 692 m 128,-1,35
 334 692 334 692 304 662.5 c 128,-1,36
 274 633 274 633 274 590 c 2,37,-1
 274 307 l 2,38,39
 274 264 274 264 304 234.5 c 128,-1,40
 334 205 334 205 377 205 c 128,-1,41
 420 205 420 205 449.5 234.5 c 128,-1,42
 479 264 479 264 479 307 c 2,43,-1
 479 590 l 2,44,45
 479 633 479 633 449.5 662.5 c 128,-1,34
 420 692 420 692 377 692 c 128,-1,35
EndSplineSet
Validated: 33
EndChar

StartChar: nine
Encoding: 57 57 24
Width: 753
Flags: W
LayerCount: 2
Fore
SplineSet
377 0 m 128,-1,1
 250 0 250 0 160 90 c 128,-1,2
 70 180 70 180 70 307 c 2,3,-1
 70 410 l 1,4,-1
 274 410 l 1,5,-1
 274 307 l 2,6,7
 274 264 274 264 304 234.5 c 128,-1,8
 334 205 334 205 377 205 c 128,-1,9
 420 205 420 205 449.5 234.5 c 128,-1,10
 479 264 479 264 479 307 c 2,11,-1
 479 530 l 1,12,13
 430 512 430 512 377 512 c 0,14,15
 250 512 250 512 160 602 c 128,-1,16
 70 692 70 692 70 819 c 2,17,-1
 70 1126 l 2,18,19
 70 1253 70 1253 160 1343.5 c 128,-1,20
 250 1434 250 1434 377 1434 c 128,-1,21
 504 1434 504 1434 594 1343.5 c 128,-1,22
 684 1253 684 1253 684 1126 c 2,23,-1
 684 819 l 1,24,-1
 684 307 l 2,25,26
 684 180 684 180 594 90 c 128,-1,0
 504 0 504 0 377 0 c 128,-1,1
377 717 m 128,-1,28
 420 717 420 717 449.5 746.5 c 128,-1,29
 479 776 479 776 479 819 c 2,30,-1
 479 1126 l 2,31,32
 479 1169 479 1169 449.5 1199 c 128,-1,33
 420 1229 420 1229 377 1229 c 128,-1,34
 334 1229 334 1229 304 1199 c 128,-1,35
 274 1169 274 1169 274 1126 c 2,36,-1
 274 819 l 2,37,38
 274 776 274 776 304 746.5 c 128,-1,27
 334 717 334 717 377 717 c 128,-1,28
EndSplineSet
Validated: 1
EndChar

StartChar: colon
Encoding: 58 58 25
Width: 376
Flags: W
LayerCount: 2
Fore
SplineSet
86 1024 m 1,0,-1
 291 1024 l 1,1,-1
 291 819 l 1,2,-1
 86 819 l 1,3,-1
 86 1024 l 1,0,-1
86 205 m 1,4,-1
 291 205 l 1,5,-1
 291 0 l 1,6,-1
 86 0 l 1,7,-1
 86 205 l 1,4,-1
EndSplineSet
Validated: 1
EndChar

StartChar: semicolon
Encoding: 59 59 26
Width: 376
Flags: W
LayerCount: 2
Fore
SplineSet
86 1024 m 1,0,-1
 291 1024 l 1,1,-1
 291 819 l 1,2,-1
 86 819 l 1,3,-1
 86 1024 l 1,0,-1
86 205 m 1,4,-1
 291 205 l 1,5,-1
 291 0 l 1,6,-1
 86 -205 l 1,7,-1
 86 205 l 1,4,-1
EndSplineSet
Validated: 1
EndChar

StartChar: less
Encoding: 60 60 27
Width: 901
Flags: W
LayerCount: 2
Fore
SplineSet
874 956 m 1,0,-1
 874 739 l 1,1,-1
 660 527 l 1,2,-1
 874 314 l 1,3,-1
 874 98 l 1,4,-1
 443 527 l 1,5,-1
 874 956 l 1,0,-1
EndSplineSet
Validated: 1
EndChar

StartChar: equal
Encoding: 61 61 28
Width: 671
Flags: W
LayerCount: 2
Fore
SplineSet
90 479 m 1,0,-1
 582 479 l 1,1,-1
 582 315 l 1,2,-1
 90 315 l 1,3,-1
 90 479 l 1,0,-1
90 729 m 1,4,-1
 582 729 l 1,5,-1
 582 565 l 1,6,-1
 90 565 l 1,7,-1
 90 729 l 1,4,-1
EndSplineSet
Validated: 1
EndChar

StartChar: greater
Encoding: 62 62 29
Width: 901
Flags: W
LayerCount: 2
Fore
SplineSet
450 956 m 1,0,-1
 450 739 l 1,1,-1
 664 527 l 1,2,-1
 450 314 l 1,3,-1
 450 98 l 1,4,-1
 881 527 l 1,5,-1
 450 956 l 1,0,-1
EndSplineSet
Validated: 9
EndChar

StartChar: question
Encoding: 63 63 30
Width: 745
Flags: W
LayerCount: 2
Fore
SplineSet
373 1434 m 128,-1,1
 500 1434 500 1434 590 1343.5 c 128,-1,2
 680 1253 680 1253 680 1126 c 2,3,-1
 680 973 l 2,4,5
 680 893 680 893 637 801 c 0,6,7
 619 762 619 762 566.5 684 c 128,-1,8
 514 606 514 606 500 563 c 1,9,10
 490 528 490 528 483.5 490.5 c 128,-1,11
 477 453 477 453 475 430 c 1,12,-1
 475 410 l 1,13,-1
 475 307 l 1,14,-1
 270 307 l 1,15,-1
 270 461 l 2,16,17
 270 541 270 541 313 633 c 0,18,19
 331 672 331 672 383.5 749.5 c 128,-1,20
 436 827 436 827 451 870 c 1,21,22
 461 905 461 905 467 943 c 128,-1,23
 473 981 473 981 475 1004 c 1,24,-1
 475 1024 l 1,25,-1
 475 1126 l 2,26,27
 475 1169 475 1169 445.5 1199 c 128,-1,28
 416 1229 416 1229 373 1229 c 128,-1,29
 330 1229 330 1229 300 1199 c 128,-1,30
 270 1169 270 1169 270 1126 c 2,31,-1
 270 1024 l 1,32,-1
 66 1024 l 1,33,-1
 66 1126 l 2,34,35
 66 1253 66 1253 156 1343.5 c 128,-1,0
 246 1434 246 1434 373 1434 c 128,-1,1
270 205 m 1,36,-1
 475 205 l 1,37,-1
 475 0 l 1,38,-1
 270 0 l 1,39,-1
 270 205 l 1,36,-1
EndSplineSet
Validated: 1
EndChar

StartChar: A
Encoding: 65 65 32
Width: 825
Flags: W
LayerCount: 2
Fore
SplineSet
311 1434 m 1,0,-1
 514 1434 l 1,1,-1
 821 0 l 1,2,-1
 618 0 l 1,3,-1
 557 307 l 1,4,-1
 268 309 l 1,5,-1
 207 0 l 1,6,-1
 4 0 l 1,7,-1
 311 1434 l 1,0,-1
412 1024 m 1,8,-1
 309 510 l 1,9,-1
 516 510 l 1,10,-1
 414 1024 l 1,11,12
 414 1024 414 1024 412 1024 c 1,8,-1
EndSplineSet
Validated: 1
EndChar

StartChar: B
Encoding: 66 66 33
Width: 808
Flags: W
LayerCount: 2
Fore
SplineSet
98 1432 m 1,0,-1
 508 1432 l 2,1,2
 592 1432 592 1432 651.5 1372.5 c 128,-1,3
 711 1313 711 1313 711 1227 c 2,4,-1
 711 793 l 2,5,6
 711 762 711 762 688.5 739.5 c 128,-1,7
 666 717 666 717 635 717 c 1,8,-1
 635 715 l 1,9,10
 666 715 666 715 688.5 692.5 c 128,-1,11
 711 670 711 670 711 639 c 2,12,-1
 711 203 l 2,13,14
 711 119 711 119 651.5 59.5 c 128,-1,15
 592 0 592 0 508 0 c 2,16,-1
 98 0 l 1,17,-1
 98 1432 l 1,0,-1
301 1229 m 1,18,-1
 301 817 l 1,19,-1
 430 817 l 2,20,21
 463 817 463 817 485.5 839.5 c 128,-1,22
 508 862 508 862 508 895 c 2,23,-1
 508 1151 l 2,24,25
 508 1184 508 1184 485.5 1206.5 c 128,-1,26
 463 1229 463 1229 430 1229 c 2,27,-1
 301 1229 l 1,18,-1
301 614 m 1,28,-1
 301 203 l 1,29,-1
 430 203 l 2,30,31
 463 203 463 203 485.5 225.5 c 128,-1,32
 508 248 508 248 508 281 c 2,33,-1
 508 537 l 2,34,35
 508 570 508 570 485.5 592 c 128,-1,36
 463 614 463 614 430 614 c 2,37,-1
 301 614 l 1,28,-1
EndSplineSet
Validated: 1
EndChar

StartChar: C
Encoding: 67 67 34
Width: 761
Flags: W
LayerCount: 2
Fore
SplineSet
393 1434 m 128,-1,1
 520 1434 520 1434 610 1343.5 c 128,-1,2
 700 1253 700 1253 700 1126 c 2,3,-1
 700 1024 l 1,4,-1
 496 1024 l 1,5,-1
 496 1126 l 2,6,7
 496 1169 496 1169 466 1199 c 128,-1,8
 436 1229 436 1229 393 1229 c 128,-1,9
 350 1229 350 1229 320.5 1199 c 128,-1,10
 291 1169 291 1169 291 1126 c 2,11,-1
 291 307 l 2,12,13
 291 264 291 264 320.5 234.5 c 128,-1,14
 350 205 350 205 393 205 c 128,-1,15
 436 205 436 205 466 234.5 c 128,-1,16
 496 264 496 264 496 307 c 2,17,-1
 496 410 l 1,18,-1
 700 410 l 1,19,-1
 700 307 l 2,20,21
 700 180 700 180 610 90 c 128,-1,22
 520 0 520 0 393 0 c 128,-1,23
 266 0 266 0 176 90 c 128,-1,24
 86 180 86 180 86 307 c 2,25,-1
 86 1126 l 2,26,27
 86 1253 86 1253 176 1343.5 c 128,-1,0
 266 1434 266 1434 393 1434 c 128,-1,1
EndSplineSet
Validated: 1
EndChar

StartChar: D
Encoding: 68 68 35
Width: 808
Flags: W
LayerCount: 2
Fore
SplineSet
98 1434 m 1,0,-1
 508 1434 l 2,1,2
 592 1434 592 1434 651.5 1374.5 c 128,-1,3
 711 1315 711 1315 711 1229 c 2,4,-1
 711 203 l 2,5,6
 711 119 711 119 651.5 59.5 c 128,-1,7
 592 0 592 0 508 0 c 2,8,-1
 98 0 l 1,9,-1
 98 1434 l 1,0,-1
301 1231 m 1,10,-1
 301 203 l 1,11,-1
 430 203 l 2,12,13
 463 203 463 203 485.5 225.5 c 128,-1,14
 508 248 508 248 508 281 c 2,15,-1
 508 1153 l 2,16,17
 508 1186 508 1186 485.5 1208.5 c 128,-1,18
 463 1231 463 1231 430 1231 c 2,19,-1
 301 1231 l 1,10,-1
EndSplineSet
Validated: 1
EndChar

StartChar: E
Encoding: 69 69 36
Width: 749
Flags: W
LayerCount: 2
Fore
SplineSet
98 0 m 1,0,-1
 98 1434 l 1,1,-1
 713 1434 l 1,2,-1
 713 1229 l 1,3,-1
 303 1229 l 1,4,-1
 303 819 l 1,5,-1
 610 819 l 1,6,-1
 610 614 l 1,7,-1
 303 614 l 1,8,-1
 303 205 l 1,9,-1
 713 205 l 1,10,-1
 713 0 l 1,11,-1
 98 0 l 1,0,-1
EndSplineSet
Validated: 1
EndChar

StartChar: F
Encoding: 70 70 37
Width: 749
Flags: W
LayerCount: 2
Fore
SplineSet
98 1434 m 1,0,-1
 98 0 l 1,1,-1
 303 0 l 1,2,-1
 303 614 l 1,3,-1
 610 614 l 1,4,-1
 610 819 l 1,5,-1
 303 819 l 1,6,-1
 303 1229 l 1,7,-1
 713 1229 l 1,8,-1
 713 1434 l 1,9,-1
 98 1434 l 1,0,-1
EndSplineSet
Validated: 9
EndChar

StartChar: G
Encoding: 71 71 38
Width: 786
Flags: W
LayerCount: 2
Fore
SplineSet
393 1434 m 128,-1,1
 520 1434 520 1434 610 1343.5 c 128,-1,2
 700 1253 700 1253 700 1126 c 1,3,-1
 496 1126 l 1,4,5
 496 1169 496 1169 466 1199 c 128,-1,6
 436 1229 436 1229 393 1229 c 128,-1,7
 350 1229 350 1229 320.5 1199 c 128,-1,8
 291 1169 291 1169 291 1126 c 2,9,-1
 291 307 l 2,10,11
 291 264 291 264 320.5 234.5 c 128,-1,12
 350 205 350 205 393 205 c 128,-1,13
 436 205 436 205 466 234.5 c 128,-1,14
 496 264 496 264 496 307 c 2,15,-1
 496 614 l 1,16,-1
 393 614 l 1,17,-1
 393 819 l 1,18,-1
 700 819 l 1,19,-1
 700 307 l 2,20,21
 700 180 700 180 610 90 c 128,-1,22
 520 0 520 0 393 0 c 128,-1,23
 266 0 266 0 176 90 c 128,-1,24
 86 180 86 180 86 307 c 2,25,-1
 86 1126 l 2,26,27
 86 1253 86 1253 176 1343.5 c 128,-1,0
 266 1434 266 1434 393 1434 c 128,-1,1
EndSplineSet
Validated: 1
EndChar

StartChar: H
Encoding: 72 72 39
Width: 811
Flags: W
LayerCount: 2
Fore
SplineSet
98 1434 m 1,0,-1
 303 1434 l 1,1,-1
 303 819 l 1,2,-1
 508 819 l 1,3,-1
 508 1434 l 1,4,-1
 713 1434 l 1,5,-1
 713 0 l 1,6,-1
 508 0 l 1,7,-1
 508 614 l 1,8,-1
 303 614 l 1,9,-1
 303 0 l 1,10,-1
 98 0 l 1,11,-1
 98 1434 l 1,0,-1
EndSplineSet
Validated: 1
EndChar

StartChar: I
Encoding: 73 73 40
Width: 413
Flags: W
LayerCount: 2
Fore
SplineSet
309 0 m 1,0,-1
 104 0 l 1,1,-1
 104 1434 l 1,2,-1
 309 1434 l 1,3,-1
 309 0 l 1,0,-1
EndSplineSet
Validated: 1
EndChar

StartChar: J
Encoding: 74 74 41
Width: 462
Flags: W
LayerCount: 2
Fore
SplineSet
160 1434 m 1,0,-1
 365 1434 l 1,1,-1
 365 205 l 2,2,3
 365 121 365 121 304.5 60.5 c 128,-1,4
 244 0 244 0 160 0 c 2,5,-1
 -45 0 l 1,6,-1
 -45 205 l 1,7,-1
 57 205 l 2,8,9
 100 205 100 205 130 234.5 c 128,-1,10
 160 264 160 264 160 307 c 2,11,-1
 160 1434 l 1,0,-1
EndSplineSet
Validated: 1
EndChar

StartChar: K
Encoding: 75 75 42
Width: 706
Flags: W
LayerCount: 2
Fore
SplineSet
98 1434 m 1,0,-1
 303 1434 l 1,1,-1
 303 922 l 1,2,-1
 508 1434 l 1,3,-1
 713 1434 l 1,4,-1
 477 844 l 1,5,-1
 713 0 l 1,6,-1
 508 0 l 1,7,-1
 354 537 l 1,8,-1
 303 410 l 1,9,-1
 303 0 l 1,10,-1
 98 0 l 1,11,-1
 98 1434 l 1,0,-1
EndSplineSet
Validated: 1
EndChar

StartChar: L
Encoding: 76 76 43
Width: 749
Flags: W
LayerCount: 2
Fore
SplineSet
98 0 m 1,0,-1
 98 1434 l 1,1,-1
 303 1434 l 1,2,-1
 303 205 l 1,3,-1
 713 205 l 1,4,-1
 713 0 l 1,5,-1
 98 0 l 1,0,-1
EndSplineSet
Validated: 1
EndChar

StartChar: M
Encoding: 77 77 44
Width: 1118
Flags: W
LayerCount: 2
Fore
SplineSet
457 307 m 1,0,-1
 303 768 l 1,1,-1
 303 0 l 1,2,-1
 98 0 l 1,3,-1
 98 1434 l 1,4,-1
 303 1434 l 1,5,-1
 559 666 l 1,6,-1
 815 1434 l 1,7,-1
 1020 1434 l 1,8,-1
 1020 0 l 1,9,-1
 815 0 l 1,10,-1
 815 768 l 1,11,-1
 662 307 l 1,12,-1
 457 307 l 1,0,-1
EndSplineSet
Validated: 1
EndChar

StartChar: N
Encoding: 78 78 45
Width: 794
Flags: W
LayerCount: 2
Fore
SplineSet
90 1434 m 1,0,-1
 295 1434 l 1,1,-1
 500 717 l 1,2,-1
 500 1434 l 1,3,-1
 705 1434 l 1,4,-1
 705 0 l 1,5,-1
 500 0 l 1,6,-1
 295 717 l 1,7,-1
 295 0 l 1,8,-1
 90 0 l 1,9,-1
 90 1434 l 1,0,-1
EndSplineSet
Validated: 1
EndChar

StartChar: O
Encoding: 79 79 46
Width: 786
Flags: W
LayerCount: 2
Fore
SplineSet
393 1434 m 128,-1,1
 520 1434 520 1434 610 1343.5 c 128,-1,2
 700 1253 700 1253 700 1126 c 2,3,-1
 700 307 l 2,4,5
 700 180 700 180 610 90 c 128,-1,6
 520 0 520 0 393 0 c 128,-1,7
 266 0 266 0 176 90 c 128,-1,8
 86 180 86 180 86 307 c 2,9,-1
 86 1126 l 2,10,11
 86 1253 86 1253 176 1343.5 c 128,-1,0
 266 1434 266 1434 393 1434 c 128,-1,1
393 1229 m 128,-1,13
 350 1229 350 1229 320.5 1199 c 128,-1,14
 291 1169 291 1169 291 1126 c 2,15,-1
 291 836 l 1,16,-1
 291 596 l 1,17,-1
 291 307 l 2,18,19
 291 264 291 264 320.5 234.5 c 128,-1,20
 350 205 350 205 393 205 c 128,-1,21
 436 205 436 205 466 234.5 c 128,-1,22
 496 264 496 264 496 307 c 2,23,-1
 496 596 l 1,24,-1
 496 836 l 1,25,-1
 496 1126 l 2,26,27
 496 1169 496 1169 466 1199 c 128,-1,12
 436 1229 436 1229 393 1229 c 128,-1,13
EndSplineSet
Validated: 1
EndChar

StartChar: P
Encoding: 80 80 47
Width: 768
Flags: W
LayerCount: 2
Fore
SplineSet
98 1432 m 1,0,-1
 508 1432 l 2,1,2
 592 1432 592 1432 651.5 1372.5 c 128,-1,3
 711 1313 711 1313 711 1227 c 2,4,-1
 711 817 l 2,5,6
 711 733 711 733 651.5 673.5 c 128,-1,7
 592 614 592 614 508 614 c 2,8,-1
 301 614 l 1,9,-1
 301 0 l 1,10,-1
 98 0 l 1,11,-1
 98 1432 l 1,0,-1
301 1229 m 1,12,-1
 301 817 l 1,13,-1
 430 817 l 2,14,15
 463 817 463 817 485.5 839.5 c 128,-1,16
 508 862 508 862 508 895 c 2,17,-1
 508 1151 l 2,18,19
 508 1184 508 1184 485.5 1206.5 c 128,-1,20
 463 1229 463 1229 430 1229 c 2,21,-1
 301 1229 l 1,12,-1
EndSplineSet
Validated: 1
EndChar

StartChar: Q
Encoding: 81 81 48
Width: 790
Flags: W
LayerCount: 2
Fore
SplineSet
393 1434 m 128,-1,1
 520 1434 520 1434 610 1343.5 c 128,-1,2
 700 1253 700 1253 700 1126 c 2,3,-1
 700 299 l 2,4,5
 700 256 700 256 730 226.5 c 128,-1,6
 760 197 760 197 803 197 c 1,7,-1
 803 -8 l 1,8,9
 682 -8 682 -8 594 74 c 1,10,11
 508 0 508 0 393 0 c 0,12,13
 266 0 266 0 176 90 c 128,-1,14
 86 180 86 180 86 307 c 2,15,-1
 86 1126 l 2,16,17
 86 1253 86 1253 176 1343.5 c 128,-1,0
 266 1434 266 1434 393 1434 c 128,-1,1
393 1229 m 128,-1,19
 350 1229 350 1229 320.5 1199 c 128,-1,20
 291 1169 291 1169 291 1126 c 2,21,-1
 291 307 l 2,22,23
 291 264 291 264 320.5 234.5 c 128,-1,24
 350 205 350 205 393 205 c 128,-1,25
 436 205 436 205 466 234.5 c 128,-1,26
 496 264 496 264 496 307 c 2,27,-1
 496 1126 l 2,28,29
 496 1169 496 1169 466 1199 c 128,-1,18
 436 1229 436 1229 393 1229 c 128,-1,19
EndSplineSet
Validated: 1
EndChar

StartChar: R
Encoding: 82 82 49
Width: 788
Flags: W
LayerCount: 2
Fore
SplineSet
98 1432 m 1,0,-1
 508 1430 l 2,1,2
 592 1430 592 1430 651.5 1370.5 c 128,-1,3
 711 1311 711 1311 711 1227 c 2,4,-1
 711 817 l 2,5,6
 711 700 711 700 610 641 c 1,7,-1
 610 641 l 1,8,-1
 711 0 l 1,9,-1
 508 0 l 1,10,-1
 406 614 l 1,11,-1
 301 614 l 1,12,-1
 301 0 l 1,13,-1
 98 0 l 1,14,-1
 98 1432 l 1,0,-1
301 1229 m 1,15,-1
 301 815 l 1,16,-1
 430 815 l 2,17,18
 463 815 463 815 485.5 838.5 c 128,-1,19
 508 862 508 862 508 893 c 2,20,-1
 508 1149 l 2,21,22
 508 1182 508 1182 485.5 1205.5 c 128,-1,23
 463 1229 463 1229 430 1229 c 2,24,-1
 301 1229 l 1,15,-1
EndSplineSet
Validated: 5
EndChar

StartChar: S
Encoding: 83 83 50
Width: 729
Flags: W
LayerCount: 2
Fore
SplineSet
57 410 m 1,0,-1
 57 307 l 2,1,2
 57 180 57 180 147.5 90 c 128,-1,3
 238 0 238 0 365 0 c 128,-1,4
 492 0 492 0 582 90 c 128,-1,5
 672 180 672 180 672 307 c 2,6,-1
 672 512 l 2,7,8
 672 629 672 629 594 717 c 1,9,10
 502 819 502 819 365 819 c 0,11,12
 322 819 322 819 292 849 c 128,-1,13
 262 879 262 879 262 922 c 2,14,-1
 262 1126 l 2,15,16
 262 1169 262 1169 292 1199 c 128,-1,17
 322 1229 322 1229 365 1229 c 128,-1,18
 408 1229 408 1229 437.5 1199 c 128,-1,19
 467 1169 467 1169 467 1126 c 2,20,-1
 467 1024 l 1,21,-1
 653 1024 l 1,22,-1
 672 1024 l 1,23,-1
 672 1126 l 2,24,25
 672 1253 672 1253 582 1343.5 c 128,-1,26
 492 1434 492 1434 365 1434 c 128,-1,27
 238 1434 238 1434 147.5 1343.5 c 128,-1,28
 57 1253 57 1253 57 1126 c 2,29,-1
 57 922 l 2,30,31
 57 805 57 805 135 717 c 1,32,33
 227 615 227 615 365 614 c 0,34,35
 408 614 408 614 437.5 584.5 c 128,-1,36
 467 555 467 555 467 512 c 2,37,-1
 467 307 l 2,38,39
 467 264 467 264 437.5 234.5 c 128,-1,40
 408 205 408 205 365 205 c 128,-1,41
 322 205 322 205 292 234.5 c 128,-1,42
 262 264 262 264 262 307 c 2,43,-1
 262 410 l 1,44,-1
 57 410 l 1,0,-1
EndSplineSet
Validated: 9
EndChar

StartChar: T
Encoding: 84 84 51
Width: 602
Flags: W
LayerCount: 2
Fore
SplineSet
-6 1434 m 1,0,-1
 608 1434 l 1,1,-1
 608 1229 l 1,2,-1
 403 1229 l 1,3,-1
 403 0 l 1,4,-1
 199 0 l 1,5,-1
 199 1229 l 1,6,-1
 -6 1229 l 1,7,-1
 -6 1434 l 1,0,-1
EndSplineSet
Validated: 1
EndChar

StartChar: U
Encoding: 85 85 52
Width: 811
Flags: W
LayerCount: 2
Fore
SplineSet
98 1434 m 1,0,-1
 303 1434 l 1,1,-1
 303 307 l 2,2,3
 303 264 303 264 332.5 234.5 c 128,-1,4
 362 205 362 205 405.5 205 c 128,-1,5
 449 205 449 205 478.5 234.5 c 128,-1,6
 508 264 508 264 508 307 c 2,7,-1
 508 1434 l 1,8,-1
 713 1434 l 1,9,-1
 713 307 l 2,10,11
 713 180 713 180 622.5 90 c 128,-1,12
 532 0 532 0 405.5 0 c 128,-1,13
 279 0 279 0 188.5 90 c 128,-1,14
 98 180 98 180 98 307 c 2,15,-1
 98 1434 l 1,0,-1
EndSplineSet
Validated: 1
EndChar

StartChar: V
Encoding: 86 86 53
Width: 770
Flags: W
LayerCount: 2
Fore
SplineSet
27 1434 m 1,0,-1
 283 -2 l 1,1,-1
 489 -2 l 1,2,-1
 745 1434 l 1,3,-1
 539 1434 l 1,4,-1
 539 1432 l 1,5,-1
 385 594 l 1,6,-1
 233 1432 l 1,7,-1
 233 1434 l 1,8,-1
 27 1434 l 1,0,-1
EndSplineSet
Validated: 9
EndChar

StartChar: W
Encoding: 87 87 54
Width: 1296
Flags: W
LayerCount: 2
Fore
SplineSet
33 1436 m 1,0,-1
 289 0 l 1,1,-1
 496 0 l 1,2,-1
 649 856 l 1,3,-1
 801 0 l 1,4,-1
 1008 0 l 1,5,-1
 1264 1434 l 1,6,-1
 1057 1434 l 1,7,-1
 905 596 l 1,8,-1
 752 1436 l 1,9,-1
 545 1436 l 1,10,-1
 391 596 l 1,11,-1
 240 1436 l 1,12,-1
 33 1436 l 1,0,-1
EndSplineSet
Validated: 9
EndChar

StartChar: X
Encoding: 88 88 55
Width: 712
Flags: W
LayerCount: 2
Fore
SplineSet
252 717 m 1,0,-1
 -4 0 l 1,1,-1
 203 0 l 1,2,-1
 356 432 l 1,3,-1
 508 0 l 1,4,-1
 715 0 l 1,5,-1
 459 717 l 1,6,-1
 715 1436 l 1,7,-1
 508 1436 l 1,8,-1
 356 1004 l 1,9,-1
 203 1436 l 1,10,-1
 -4 1436 l 1,11,-1
 252 717 l 1,0,-1
EndSplineSet
Validated: 9
EndChar

StartChar: Y
Encoding: 89 89 56
Width: 737
Flags: W
LayerCount: 2
Fore
SplineSet
262 408 m 1,0,-1
 262 -2 l 1,1,-1
 469 -2 l 1,2,-1
 469 408 l 1,3,-1
 725 1434 l 1,4,-1
 518 1434 l 1,5,-1
 367 821 l 1,6,-1
 213 1434 l 1,7,-1
 6 1434 l 1,8,-1
 262 408 l 1,0,-1
EndSplineSet
Validated: 9
EndChar

StartChar: Z
Encoding: 90 90 57
Width: 673
Flags: W
LayerCount: 2
Fore
SplineSet
31 1434 m 1,0,-1
 31 1229 l 1,1,-1
 440 1229 l 1,2,-1
 31 203 l 1,3,-1
 31 0 l 1,4,-1
 643 0 l 1,5,-1
 643 203 l 1,6,-1
 233 203 l 1,7,-1
 643 1229 l 1,8,-1
 643 1432 l 1,9,-1
 31 1434 l 1,0,-1
EndSplineSet
Validated: 9
EndChar

StartChar: bracketleft
Encoding: 91 91 58
Width: 544
Flags: W
LayerCount: 2
Fore
SplineSet
528 1535 m 1,0,-1
 325 1535 l 1,1,-1
 325 -102 l 1,2,-1
 528 -102 l 1,3,-1
 528 -204 l 1,4,-1
 119 -204 l 1,5,-1
 119 -102 l 1,6,-1
 119 1535 l 1,7,-1
 119 1637 l 1,8,-1
 528 1637 l 1,9,-1
 528 1535 l 1,0,-1
EndSplineSet
Validated: 1
EndChar

StartChar: backslash
Encoding: 92 92 59
Width: 519
Flags: W
LayerCount: 2
Fore
SplineSet
193 1637 m 1,0,-1
 20 1637 l 1,1,-1
 326 -203 l 1,2,-1
 499 -203 l 1,3,-1
 193 1637 l 1,0,-1
EndSplineSet
Validated: 9
EndChar

StartChar: bracketright
Encoding: 93 93 60
Width: 544
Flags: W
LayerCount: 2
Fore
SplineSet
16 1535 m 1,0,-1
 220 1535 l 1,1,-1
 220 -102 l 1,2,-1
 16 -102 l 1,3,-1
 16 -204 l 1,4,-1
 426 -204 l 1,5,-1
 426 -102 l 1,6,-1
 426 1535 l 1,7,-1
 426 1637 l 1,8,-1
 16 1637 l 1,9,-1
 16 1535 l 1,0,-1
EndSplineSet
Validated: 9
EndChar

StartChar: asciicircum
Encoding: 94 94 61
Width: 733
Flags: W
LayerCount: 2
Fore
SplineSet
254 1483 m 1,0,-1
 459 1483 l 1,1,-1
 662 1229 l 1,2,-1
 485 1229 l 1,3,-1
 356 1384 l 1,4,-1
 227 1229 l 1,5,-1
 51 1229 l 1,6,-1
 254 1483 l 1,0,-1
EndSplineSet
Validated: 1
EndChar

StartChar: grave
Encoding: 96 96 62
Width: 825
Flags: W
LayerCount: 2
Fore
SplineSet
209 1739 m 1,0,-1
 412 1739 l 1,1,-1
 565 1485 l 1,2,-1
 414 1485 l 1,3,-1
 209 1739 l 1,0,-1
EndSplineSet
Validated: 1
EndChar

StartChar: a
Encoding: 97 97 63
Width: 733
Flags: HWO
LayerCount: 2
Fore
SplineSet
358 1024 m 132,-1,1
 485 1024 485 1024 575.5 934 c 132,-1,2
 666 844 666 844 666 717 c 6,3,-1
 666 0 l 5,4,-1
 459 0 l 5,5,-1
 460 182 l 6,6,7
 460 171 460 171 447 133 c 4,8,9
 436 98 436 98 416.5 71.5 c 132,-1,10
 397 45 397 45 355 22.5 c 132,-1,11
 313 0 313 0 256 0 c 132,-1,12
 199 0 199 0 157 21.5 c 132,-1,13
 115 43 115 43 95.5 72.5 c 132,-1,14
 76 102 76 102 64.5 132 c 132,-1,15
 53 162 53 162 53 184 c 5,16,-1
 51 205 l 5,17,-1
 51 307 l 6,18,19
 51 434 51 434 141 524 c 132,-1,20
 231 614 231 614 358 614 c 4,21,22
 401 614 401 614 431 644 c 132,-1,23
 461 674 461 674 461 717 c 132,-1,24
 461 760 461 760 431 789.5 c 132,-1,25
 401 819 401 819 358 819 c 132,-1,26
 315 819 315 819 285.5 789.5 c 132,-1,27
 256 760 256 760 256 717 c 5,28,-1
 51 717 l 5,29,30
 51 844 51 844 141 934 c 132,-1,0
 231 1024 231 1024 358 1024 c 132,-1,1
  Spiro
    358 1024 o
    475.875 1001.5 o
    575.5 934 o
    643.375 834.75 o
    666 717 [
    666 0 v
    459 0 v
    460 182 ]
    456.75 164.25 o
    447 133 o
    433.875 100.125 o
    416.5 71.5 o
    391.375 46 o
    355 22.5 o
    309.25 5.625 o
    256 0 o
    202.75 5.375 o
    157 21.5 o
    120.625 45 o
    95.5 72.5 o
    78 102.125 o
    64.5 132 o
    55.875 160 o
    53 184 v
    51 205 v
    51 307 ]
    73.5 424.75 o
    141 524 o
    240.25 591.5 o
    358 614 o
    397.75 621.5 o
    431 644 o
    453.5 677.25 o
    461 717 o
    453.5 756.625 o
    431 789.5 o
    397.75 811.625 o
    358 819 o
    318.375 811.625 o
    285.5 789.5 o
    263.375 756.625 o
    256 717 v
    51 717 v
    73.5 834.75 o
    141 934 o
    240.25 1001.5 o
    0 0 z
  EndSpiro
358 205 m 4,31,32
 403 205 403 205 429 230.5 c 132,-1,33
 455 256 455 256 459 281 c 5,34,-1
 461 307 l 5,35,-1
 461 428 l 5,36,37
 412 410 412 410 358 410 c 4,38,39
 315 410 315 410 285.5 380 c 132,-1,40
 256 350 256 350 256 307 c 4,41,42
 256 303 256 303 257 296 c 132,-1,43
 258 289 258 289 263 271.5 c 132,-1,44
 268 254 268 254 277.5 240.5 c 132,-1,45
 287 227 287 227 308 216 c 132,-1,46
 329 205 329 205 358 205 c 4,31,32
  Spiro
    358 205 o
    398.25 211.375 o
    429 230.5 o
    449.5 255.875 o
    459 281 v
    461 307 v
    461 428 v
    410.75 414.5 o
    358 410 o
    318.375 402.5 o
    285.5 380 o
    263.375 346.75 o
    256 307 o
    256.25 302.25 o
    257 296 o
    259 286.375 o
    263 271.5 o
    269.125 255 o
    277.5 240.5 o
    289.875 227.625 o
    308 216 o
    331 207.75 o
    0 0 z
  EndSpiro
EndSplineSet
EndChar

StartChar: b
Encoding: 98 98 64
Width: 786
Flags: W
LayerCount: 2
Fore
SplineSet
291 1434 m 1,0,-1
 86 1434 l 1,1,-1
 86 0 l 1,2,-1
 291 0 l 1,3,-1
 291 205 l 2,4,5
 291 197 291 197 292 182.5 c 128,-1,6
 293 168 293 168 304 133 c 128,-1,7
 315 98 315 98 334.5 71.5 c 128,-1,8
 354 45 354 45 396 22.5 c 128,-1,9
 438 0 438 0 495.5 0 c 128,-1,10
 553 0 553 0 595 21.5 c 128,-1,11
 637 43 637 43 656.5 72.5 c 128,-1,12
 676 102 676 102 687 132 c 128,-1,13
 698 162 698 162 698 184 c 1,14,-1
 700 205 l 1,15,-1
 700 307 l 1,16,-1
 700 717 l 1,17,-1
 700 819 l 2,18,19
 700 827 700 827 699 841.5 c 128,-1,20
 698 856 698 856 687 891 c 128,-1,21
 676 926 676 926 656.5 952.5 c 128,-1,22
 637 979 637 979 595 1001.5 c 128,-1,23
 553 1024 553 1024 495.5 1024 c 128,-1,24
 438 1024 438 1024 396 1002.5 c 128,-1,25
 354 981 354 981 334.5 951.5 c 128,-1,26
 315 922 315 922 304 892 c 128,-1,27
 293 862 293 862 293 840 c 1,28,-1
 291 819 l 1,29,-1
 291 1434 l 1,0,-1
291 307 m 1,30,-1
 291 717 l 2,31,32
 291 721 291 721 292 728 c 128,-1,33
 293 735 293 735 298 752.5 c 128,-1,34
 303 770 303 770 312.5 783.5 c 128,-1,35
 322 797 322 797 343.5 808 c 128,-1,36
 365 819 365 819 393 819 c 0,37,38
 438 819 438 819 463.5 793.5 c 128,-1,39
 489 768 489 768 494 741 c 1,40,-1
 496 717 l 1,41,-1
 496 307 l 2,42,43
 496 303 496 303 495 296 c 128,-1,44
 494 289 494 289 488.5 271.5 c 128,-1,45
 483 254 483 254 474 240.5 c 128,-1,46
 465 227 465 227 443.5 216 c 128,-1,47
 422 205 422 205 393.5 205 c 128,-1,48
 365 205 365 205 343.5 215 c 128,-1,49
 322 225 322 225 312.5 240.5 c 128,-1,50
 303 256 303 256 298 271.5 c 128,-1,51
 293 287 293 287 291 297 c 1,52,-1
 291 307 l 1,30,-1
EndSplineSet
Validated: 9
EndChar

StartChar: c
Encoding: 99 99 65
Width: 733
Flags: W
LayerCount: 2
Fore
SplineSet
389 205 m 128,-1,1
 432 205 432 205 462 234.5 c 128,-1,2
 492 264 492 264 492 307 c 1,3,-1
 696 307 l 1,4,5
 696 180 696 180 606 90 c 128,-1,6
 516 0 516 0 389 0 c 128,-1,7
 262 0 262 0 172 90 c 128,-1,8
 82 180 82 180 82 307 c 2,9,-1
 82 717 l 2,10,11
 82 844 82 844 172 934 c 128,-1,12
 262 1024 262 1024 389 1024 c 128,-1,13
 516 1024 516 1024 606 934 c 128,-1,14
 696 844 696 844 696 717 c 1,15,-1
 492 717 l 1,16,17
 492 760 492 760 462 789.5 c 128,-1,18
 432 819 432 819 389 819 c 128,-1,19
 346 819 346 819 316.5 789.5 c 128,-1,20
 287 760 287 760 287 717 c 2,21,-1
 287 307 l 2,22,23
 287 264 287 264 316.5 234.5 c 128,-1,0
 346 205 346 205 389 205 c 128,-1,1
EndSplineSet
Validated: 1
EndChar

StartChar: d
Encoding: 100 100 66
Width: 786
Flags: W
LayerCount: 2
Fore
SplineSet
496 1434 m 1,0,-1
 700 1434 l 1,1,-1
 700 0 l 1,2,-1
 496 0 l 1,3,-1
 496 205 l 2,4,5
 496 197 496 197 495 182.5 c 128,-1,6
 494 168 494 168 482.5 133 c 128,-1,7
 471 98 471 98 451.5 71.5 c 128,-1,8
 432 45 432 45 390 22.5 c 128,-1,9
 348 0 348 0 290.5 0 c 128,-1,10
 233 0 233 0 191.5 21.5 c 128,-1,11
 150 43 150 43 130.5 72.5 c 128,-1,12
 111 102 111 102 99.5 132 c 128,-1,13
 88 162 88 162 88 184 c 1,14,-1
 86 205 l 1,15,-1
 86 307 l 1,16,-1
 86 717 l 1,17,-1
 86 819 l 2,18,19
 86 827 86 827 87 841.5 c 128,-1,20
 88 856 88 856 99.5 891 c 128,-1,21
 111 926 111 926 130.5 952.5 c 128,-1,22
 150 979 150 979 191.5 1001.5 c 128,-1,23
 233 1024 233 1024 290.5 1024 c 128,-1,24
 348 1024 348 1024 390 1002.5 c 128,-1,25
 432 981 432 981 451.5 951.5 c 128,-1,26
 471 922 471 922 482.5 892 c 128,-1,27
 494 862 494 862 494 840 c 1,28,-1
 496 819 l 1,29,-1
 496 1434 l 1,0,-1
496 307 m 1,30,-1
 496 717 l 2,31,32
 496 721 496 721 495 728 c 128,-1,33
 494 735 494 735 488.5 752.5 c 128,-1,34
 483 770 483 770 474 783.5 c 128,-1,35
 465 797 465 797 443.5 808 c 128,-1,36
 422 819 422 819 393 819 c 0,37,38
 348 819 348 819 322.5 793.5 c 128,-1,39
 297 768 297 768 293 741 c 1,40,-1
 291 717 l 1,41,-1
 291 307 l 2,42,43
 291 303 291 303 292 296 c 128,-1,44
 293 289 293 289 298 271.5 c 128,-1,45
 303 254 303 254 312.5 240.5 c 128,-1,46
 322 227 322 227 343.5 216 c 128,-1,47
 365 205 365 205 393 205 c 0,48,49
 438 205 438 205 463.5 230.5 c 128,-1,50
 489 256 489 256 494 283 c 1,51,-1
 496 307 l 1,30,-1
EndSplineSet
Validated: 1
EndChar

StartChar: e
Encoding: 101 101 67
Width: 749
Flags: W
LayerCount: 2
Fore
SplineSet
375 1024 m 128,-1,1
 502 1024 502 1024 592 934 c 128,-1,2
 682 844 682 844 682 717 c 2,3,-1
 682 614 l 1,4,-1
 682 410 l 1,5,-1
 477 410 l 1,6,-1
 272 410 l 1,7,-1
 272 307 l 2,8,9
 272 264 272 264 302 234.5 c 128,-1,10
 332 205 332 205 375 205 c 128,-1,11
 418 205 418 205 447.5 234.5 c 128,-1,12
 477 264 477 264 477 307 c 1,13,-1
 682 307 l 1,14,15
 682 180 682 180 592 90 c 128,-1,16
 502 0 502 0 375 0 c 128,-1,17
 248 0 248 0 158 90 c 128,-1,18
 68 180 68 180 68 307 c 2,19,-1
 68 717 l 2,20,21
 68 844 68 844 158 934 c 128,-1,0
 248 1024 248 1024 375 1024 c 128,-1,1
272 614 m 1,22,-1
 477 614 l 1,23,-1
 477 717 l 2,24,25
 477 760 477 760 447.5 789.5 c 128,-1,26
 418 819 418 819 375 819 c 128,-1,27
 332 819 332 819 302 789.5 c 128,-1,28
 272 760 272 760 272 717 c 2,29,-1
 272 614 l 1,22,-1
EndSplineSet
Validated: 1
EndChar

StartChar: f
Encoding: 102 102 68
Width: 450
Flags: W
LayerCount: 2
Fore
SplineSet
430 1434 m 1,0,-1
 430 1229 l 1,1,2
 387 1229 387 1229 357.5 1199 c 128,-1,3
 328 1169 328 1169 328 1126 c 2,4,-1
 328 1024 l 1,5,-1
 430 1024 l 1,6,-1
 430 819 l 1,7,-1
 328 819 l 1,8,-1
 328 0 l 1,9,-1
 123 0 l 1,10,-1
 123 819 l 1,11,-1
 20 819 l 1,12,-1
 20 1024 l 1,13,-1
 123 1024 l 1,14,-1
 123 1130 l 1,15,16
 125 1255 125 1255 214 1344.5 c 128,-1,17
 303 1434 303 1434 430 1434 c 1,0,-1
EndSplineSet
Validated: 1
EndChar

StartChar: g
Encoding: 103 103 69
Width: 786
Flags: W
LayerCount: 2
Fore
SplineSet
290.5 1024 m 128,-1,1
 348 1024 348 1024 390 1002.5 c 128,-1,2
 432 981 432 981 451.5 951.5 c 128,-1,3
 471 922 471 922 482.5 892 c 128,-1,4
 494 862 494 862 494 840 c 1,5,-1
 496 819 l 1,6,-1
 496 1024 l 1,7,-1
 700 1024 l 1,8,-1
 700 -109 l 1,9,-1
 700 -113 l 1,10,11
 698 -238 698 -238 609 -327 c 128,-1,12
 520 -416 520 -416 393 -416 c 256,13,14
 266 -416 266 -416 176 -326 c 128,-1,15
 86 -236 86 -236 86 -109 c 1,16,-1
 291 -109 l 1,17,18
 291 -152 291 -152 320.5 -181.5 c 128,-1,19
 350 -211 350 -211 393 -211 c 0,20,21
 434 -211 434 -211 465 -181.5 c 128,-1,22
 496 -152 496 -152 496 -111 c 2,23,-1
 496 -109 l 1,24,-1
 496 205 l 2,25,26
 496 197 496 197 495 182.5 c 128,-1,27
 494 168 494 168 482.5 133 c 128,-1,28
 471 98 471 98 451.5 71.5 c 128,-1,29
 432 45 432 45 390 22.5 c 128,-1,30
 348 0 348 0 290.5 0 c 128,-1,31
 233 0 233 0 191.5 21.5 c 128,-1,32
 150 43 150 43 130.5 72.5 c 128,-1,33
 111 102 111 102 99.5 132 c 128,-1,34
 88 162 88 162 88 184 c 1,35,-1
 86 205 l 1,36,-1
 86 307 l 1,37,-1
 86 717 l 1,38,-1
 86 819 l 2,39,40
 86 827 86 827 87 841.5 c 128,-1,41
 88 856 88 856 99.5 891 c 128,-1,42
 111 926 111 926 130.5 952.5 c 128,-1,43
 150 979 150 979 191.5 1001.5 c 128,-1,0
 233 1024 233 1024 290.5 1024 c 128,-1,1
393 819 m 0,44,45
 348 819 348 819 322.5 793.5 c 128,-1,46
 297 768 297 768 293 741 c 1,47,-1
 291 717 l 1,48,-1
 291 307 l 2,49,50
 291 303 291 303 292 296 c 128,-1,51
 293 289 293 289 298 271.5 c 128,-1,52
 303 254 303 254 312.5 240.5 c 128,-1,53
 322 227 322 227 343.5 216 c 128,-1,54
 365 205 365 205 393 205 c 0,55,56
 438 205 438 205 463.5 230.5 c 128,-1,57
 489 256 489 256 494 283 c 1,58,-1
 496 307 l 1,59,-1
 496 717 l 2,60,61
 496 721 496 721 495 728 c 128,-1,62
 494 735 494 735 488.5 752.5 c 128,-1,63
 483 770 483 770 474 783.5 c 128,-1,64
 465 797 465 797 443.5 808 c 128,-1,65
 422 819 422 819 393 819 c 0,44,45
EndSplineSet
Validated: 1
EndChar

StartChar: h
Encoding: 104 104 70
Width: 786
Flags: W
LayerCount: 2
Fore
SplineSet
86 1434 m 1,0,-1
 291 1434 l 1,1,-1
 291 819 l 2,2,3
 291 827 291 827 292 841.5 c 128,-1,4
 293 856 293 856 304 891 c 128,-1,5
 315 926 315 926 334.5 952.5 c 128,-1,6
 354 979 354 979 396 1001.5 c 128,-1,7
 438 1024 438 1024 495.5 1024 c 128,-1,8
 553 1024 553 1024 595 1002.5 c 128,-1,9
 637 981 637 981 656.5 951.5 c 128,-1,10
 676 922 676 922 687 892 c 128,-1,11
 698 862 698 862 698 840 c 1,12,-1
 700 819 l 1,13,-1
 700 719 l 1,14,-1
 700 717 l 1,15,-1
 700 0 l 1,16,-1
 496 0 l 1,17,-1
 496 717 l 1,18,-1
 496 719 l 2,19,20
 496 727 496 727 492.5 738.5 c 128,-1,21
 489 750 489 750 481 771.5 c 128,-1,22
 473 793 473 793 450.5 806 c 128,-1,23
 428 819 428 819 393 819 c 0,24,25
 362 819 362 819 339.5 807 c 128,-1,26
 317 795 317 795 308 776.5 c 128,-1,27
 299 758 299 758 295 745.5 c 128,-1,28
 291 733 291 733 291 721 c 2,29,-1
 291 0 l 1,30,-1
 86 0 l 1,31,-1
 86 1434 l 1,0,-1
EndSplineSet
Validated: 1
EndChar

StartChar: i
Encoding: 105 105 71
Width: 376
Flags: W
LayerCount: 2
Fore
SplineSet
86 1434 m 1,0,-1
 291 1434 l 1,1,-1
 291 1229 l 1,2,-1
 86 1229 l 1,3,-1
 86 1434 l 1,0,-1
86 1024 m 1,4,-1
 291 1024 l 1,5,-1
 291 0 l 1,6,-1
 86 0 l 1,7,-1
 86 1024 l 1,4,-1
EndSplineSet
Validated: 1
EndChar

StartChar: j
Encoding: 106 106 72
Width: 348
Flags: W
LayerCount: 2
Fore
SplineSet
57 1434 m 1,0,-1
 262 1434 l 1,1,-1
 262 1229 l 1,2,-1
 57 1229 l 1,3,-1
 57 1434 l 1,0,-1
57 1024 m 1,4,-1
 262 1024 l 1,5,-1
 262 0 l 2,6,7
 262 -127 262 -127 172 -217 c 128,-1,8
 82 -307 82 -307 -45 -307 c 1,9,-1
 -45 -102 l 1,10,11
 -2 -102 -2 -102 27.5 -72.5 c 128,-1,12
 57 -43 57 -43 57 0 c 2,13,-1
 57 1024 l 1,4,-1
EndSplineSet
Validated: 1
EndChar

StartChar: k
Encoding: 107 107 73
Width: 686
Flags: W
LayerCount: 2
Fore
SplineSet
86 1434 m 1,0,-1
 291 1434 l 1,1,-1
 291 614 l 1,2,-1
 496 1024 l 1,3,-1
 700 1024 l 1,4,-1
 496 614 l 1,5,-1
 700 0 l 1,6,-1
 496 0 l 1,7,-1
 373 369 l 1,8,-1
 291 205 l 1,9,-1
 291 0 l 1,10,-1
 86 0 l 1,11,-1
 86 205 l 1,12,-1
 86 1434 l 1,0,-1
EndSplineSet
Validated: 1
EndChar

StartChar: l
Encoding: 108 108 74
Width: 408
Flags: W
LayerCount: 2
Fore
SplineSet
74 1434 m 1,0,-1
 279 1434 l 1,1,-1
 279 309 l 1,2,-1
 279 305 l 1,3,4
 281 264 281 264 310.5 234.5 c 128,-1,5
 340 205 340 205 383 205 c 1,6,-1
 383 0 l 1,7,8
 256 0 256 0 166 89 c 128,-1,9
 76 178 76 178 74 305 c 1,10,-1
 74 309 l 1,11,-1
 74 1434 l 1,0,-1
EndSplineSet
Validated: 1
EndChar

StartChar: m
Encoding: 109 109 75
Width: 1196
Flags: W
LayerCount: 2
Fore
SplineSet
86 1024 m 1,0,-1
 291 1024 l 1,1,-1
 291 819 l 2,2,3
 291 827 291 827 292 841.5 c 128,-1,4
 293 856 293 856 304 891 c 128,-1,5
 315 926 315 926 334.5 952.5 c 128,-1,6
 354 979 354 979 396 1001.5 c 128,-1,7
 438 1024 438 1024 495.5 1024 c 128,-1,8
 553 1024 553 1024 595 1002.5 c 128,-1,9
 637 981 637 981 656.5 951.5 c 128,-1,10
 676 922 676 922 687 892 c 128,-1,11
 698 862 698 862 698 840 c 1,12,-1
 700 819 l 2,13,14
 700 827 700 827 701 841.5 c 128,-1,15
 702 856 702 856 713.5 891 c 128,-1,16
 725 926 725 926 744.5 952.5 c 128,-1,17
 764 979 764 979 806 1001.5 c 128,-1,18
 848 1024 848 1024 905.5 1024 c 128,-1,19
 963 1024 963 1024 1005 1002.5 c 128,-1,20
 1047 981 1047 981 1066 951.5 c 128,-1,21
 1085 922 1085 922 1096.5 892 c 128,-1,22
 1108 862 1108 862 1108 840 c 1,23,-1
 1110 819 l 1,24,-1
 1110 719 l 1,25,-1
 1110 0 l 1,26,-1
 905 0 l 1,27,-1
 905 717 l 2,28,29
 905 721 905 721 904 728 c 128,-1,30
 903 735 903 735 898 752.5 c 128,-1,31
 893 770 893 770 883.5 783.5 c 128,-1,32
 874 797 874 797 852.5 808 c 128,-1,33
 831 819 831 819 803 819 c 0,34,35
 772 819 772 819 749.5 807 c 128,-1,36
 727 795 727 795 718 776.5 c 128,-1,37
 709 758 709 758 704.5 745.5 c 128,-1,38
 700 733 700 733 700 721 c 2,39,-1
 700 719 l 1,40,-1
 700 0 l 1,41,-1
 496 0 l 1,42,-1
 496 717 l 2,43,44
 496 721 496 721 495 728 c 128,-1,45
 494 735 494 735 488.5 752.5 c 128,-1,46
 483 770 483 770 474 783.5 c 128,-1,47
 465 797 465 797 443.5 808 c 128,-1,48
 422 819 422 819 393 819 c 0,49,50
 362 819 362 819 339.5 807 c 128,-1,51
 317 795 317 795 308 776.5 c 128,-1,52
 299 758 299 758 295 745.5 c 128,-1,53
 291 733 291 733 291 721 c 2,54,-1
 291 0 l 1,55,-1
 86 0 l 1,56,-1
 86 1024 l 1,0,-1
EndSplineSet
Validated: 1
EndChar

StartChar: n
Encoding: 110 110 76
Width: 786
Flags: W
LayerCount: 2
Fore
SplineSet
86 1024 m 1,0,-1
 291 1024 l 1,1,-1
 291 819 l 2,2,3
 291 827 291 827 292 841.5 c 128,-1,4
 293 856 293 856 304 891 c 128,-1,5
 315 926 315 926 334.5 952.5 c 128,-1,6
 354 979 354 979 396 1001.5 c 128,-1,7
 438 1024 438 1024 495.5 1024 c 128,-1,8
 553 1024 553 1024 595 1002.5 c 128,-1,9
 637 981 637 981 656.5 951.5 c 128,-1,10
 676 922 676 922 687 892 c 128,-1,11
 698 862 698 862 698 840 c 1,12,-1
 700 819 l 1,13,-1
 700 719 l 1,14,-1
 700 717 l 1,15,-1
 700 0 l 1,16,-1
 496 0 l 1,17,-1
 496 717 l 1,18,-1
 496 719 l 2,19,20
 496 727 496 727 492.5 738.5 c 128,-1,21
 489 750 489 750 481 771.5 c 128,-1,22
 473 793 473 793 450.5 806 c 128,-1,23
 428 819 428 819 393 819 c 0,24,25
 362 819 362 819 339.5 807 c 128,-1,26
 317 795 317 795 308 776.5 c 128,-1,27
 299 758 299 758 295 745.5 c 128,-1,28
 291 733 291 733 291 721 c 2,29,-1
 291 0 l 1,30,-1
 86 0 l 1,31,-1
 86 1024 l 1,0,-1
EndSplineSet
Validated: 1
EndChar

StartChar: o
Encoding: 111 111 77
Width: 753
Flags: W
LayerCount: 2
Fore
SplineSet
377 1020 m 0,0,1
 504 1020 504 1020 594 932 c 128,-1,2
 684 844 684 844 686 717 c 1,3,-1
 686 305 l 2,4,5
 686 176 686 176 595 86 c 128,-1,6
 504 -4 504 -4 377 -4 c 256,7,8
 250 -4 250 -4 161 84 c 128,-1,9
 72 172 72 172 68 297 c 1,10,-1
 68 305 l 1,11,-1
 68 711 l 2,12,13
 68 840 68 840 158 930 c 128,-1,14
 248 1020 248 1020 377 1020 c 0,0,1
377 813 m 128,-1,16
 334 813 334 813 304 783.5 c 128,-1,17
 274 754 274 754 274 713 c 2,18,-1
 274 305 l 2,19,20
 274 262 274 262 304 232.5 c 128,-1,21
 334 203 334 203 377 203 c 0,22,23
 418 203 418 203 448.5 231.5 c 128,-1,24
 479 260 479 260 479 301 c 2,25,-1
 479 711 l 2,26,27
 479 754 479 754 449.5 783.5 c 128,-1,15
 420 813 420 813 377 813 c 128,-1,16
EndSplineSet
Validated: 1
EndChar

StartChar: p
Encoding: 112 112 78
Width: 786
Flags: W
LayerCount: 2
Fore
SplineSet
86 1024 m 1,0,-1
 291 1024 l 1,1,-1
 291 819 l 2,2,3
 291 827 291 827 292 841.5 c 128,-1,4
 293 856 293 856 304 891 c 128,-1,5
 315 926 315 926 334.5 952.5 c 128,-1,6
 354 979 354 979 396 1001.5 c 128,-1,7
 438 1024 438 1024 495.5 1024 c 128,-1,8
 553 1024 553 1024 595 1002.5 c 128,-1,9
 637 981 637 981 656.5 951.5 c 128,-1,10
 676 922 676 922 687 892 c 128,-1,11
 698 862 698 862 698 840 c 1,12,-1
 700 819 l 1,13,-1
 700 719 l 1,14,-1
 700 307 l 1,15,-1
 700 205 l 2,16,17
 700 197 700 197 699 182.5 c 128,-1,18
 698 168 698 168 687 133 c 128,-1,19
 676 98 676 98 656.5 71.5 c 128,-1,20
 637 45 637 45 595 22.5 c 128,-1,21
 553 0 553 0 495.5 0 c 128,-1,22
 438 0 438 0 396 21.5 c 128,-1,23
 354 43 354 43 334.5 72.5 c 128,-1,24
 315 102 315 102 304 132 c 128,-1,25
 293 162 293 162 293 184 c 1,26,-1
 291 205 l 1,27,-1
 291 -410 l 1,28,-1
 86 -410 l 1,29,-1
 86 1024 l 1,0,-1
393 819 m 0,30,31
 362 819 362 819 339.5 807 c 128,-1,32
 317 795 317 795 308 776.5 c 128,-1,33
 299 758 299 758 295 745.5 c 128,-1,34
 291 733 291 733 291 721 c 2,35,-1
 291 303 l 2,36,37
 291 291 291 291 295 278.5 c 128,-1,38
 299 266 299 266 308 247.5 c 128,-1,39
 317 229 317 229 339.5 217 c 128,-1,40
 362 205 362 205 393 205 c 128,-1,41
 424 205 424 205 445.5 216 c 128,-1,42
 467 227 467 227 477 245.5 c 128,-1,43
 487 264 487 264 491.5 277.5 c 128,-1,44
 496 291 496 291 496 301 c 2,45,-1
 496 717 l 2,46,47
 496 721 496 721 495 728 c 128,-1,48
 494 735 494 735 488.5 752.5 c 128,-1,49
 483 770 483 770 474 783.5 c 128,-1,50
 465 797 465 797 443.5 808 c 128,-1,51
 422 819 422 819 393 819 c 0,30,31
EndSplineSet
Validated: 1
EndChar

StartChar: q
Encoding: 113 113 79
Width: 786
Flags: W
LayerCount: 2
Fore
SplineSet
290.5 1024 m 128,-1,1
 348 1024 348 1024 390 1002.5 c 128,-1,2
 432 981 432 981 451.5 951.5 c 128,-1,3
 471 922 471 922 482.5 892 c 128,-1,4
 494 862 494 862 494 840 c 1,5,-1
 496 819 l 1,6,-1
 496 1024 l 1,7,-1
 700 1024 l 1,8,-1
 700 -410 l 1,9,-1
 496 -410 l 1,10,-1
 496 205 l 2,11,12
 496 197 496 197 495 182.5 c 128,-1,13
 494 168 494 168 482.5 133 c 128,-1,14
 471 98 471 98 451.5 71.5 c 128,-1,15
 432 45 432 45 390 22.5 c 128,-1,16
 348 0 348 0 290.5 0 c 128,-1,17
 233 0 233 0 191.5 21.5 c 128,-1,18
 150 43 150 43 130.5 72.5 c 128,-1,19
 111 102 111 102 99.5 132 c 128,-1,20
 88 162 88 162 88 184 c 1,21,-1
 86 205 l 1,22,-1
 86 301 l 1,23,-1
 86 717 l 1,24,-1
 86 819 l 2,25,26
 86 827 86 827 87 841.5 c 128,-1,27
 88 856 88 856 99.5 891 c 128,-1,28
 111 926 111 926 130.5 952.5 c 128,-1,29
 150 979 150 979 191.5 1001.5 c 128,-1,0
 233 1024 233 1024 290.5 1024 c 128,-1,1
393 819 m 0,30,31
 358 819 358 819 335.5 806 c 128,-1,32
 313 793 313 793 305 771.5 c 128,-1,33
 297 750 297 750 294 738.5 c 128,-1,34
 291 727 291 727 291 719 c 2,35,-1
 291 307 l 2,36,37
 291 303 291 303 292 296 c 128,-1,38
 293 289 293 289 298 271.5 c 128,-1,39
 303 254 303 254 312.5 240.5 c 128,-1,40
 322 227 322 227 343.5 216 c 128,-1,41
 365 205 365 205 393 205 c 0,42,43
 424 205 424 205 446.5 217 c 128,-1,44
 469 229 469 229 478 247.5 c 128,-1,45
 487 266 487 266 491.5 278.5 c 128,-1,46
 496 291 496 291 496 303 c 2,47,-1
 496 721 l 2,48,49
 496 733 496 733 491.5 745.5 c 128,-1,50
 487 758 487 758 478 776.5 c 128,-1,51
 469 795 469 795 446.5 807 c 128,-1,52
 424 819 424 819 393 819 c 0,30,31
EndSplineSet
Validated: 1
EndChar

StartChar: r
Encoding: 114 114 80
Width: 720
Flags: W
LayerCount: 2
Fore
SplineSet
86 1024 m 1,0,-1
 291 1024 l 1,1,-1
 291 819 l 2,2,3
 291 827 291 827 292 841.5 c 128,-1,4
 293 856 293 856 304 891 c 128,-1,5
 315 926 315 926 334.5 952.5 c 128,-1,6
 354 979 354 979 396 1001.5 c 128,-1,7
 438 1024 438 1024 495.5 1024 c 128,-1,8
 553 1024 553 1024 595 1002.5 c 128,-1,9
 637 981 637 981 656.5 951.5 c 128,-1,10
 676 922 676 922 687 892 c 128,-1,11
 698 862 698 862 698 840 c 1,12,-1
 700 819 l 1,13,-1
 700 717 l 1,14,-1
 496 717 l 1,15,16
 496 721 496 721 495 728 c 128,-1,17
 494 735 494 735 488.5 752.5 c 128,-1,18
 483 770 483 770 474 783.5 c 128,-1,19
 465 797 465 797 443.5 808 c 128,-1,20
 422 819 422 819 393 819 c 0,21,22
 362 819 362 819 339.5 807 c 128,-1,23
 317 795 317 795 308 776.5 c 128,-1,24
 299 758 299 758 295 745.5 c 128,-1,25
 291 733 291 733 291 721 c 2,26,-1
 291 0 l 1,27,-1
 86 0 l 1,28,-1
 86 1024 l 1,0,-1
EndSplineSet
Validated: 1
EndChar

StartChar: s
Encoding: 115 115 81
Width: 720
Flags: W
LayerCount: 2
Fore
SplineSet
365 1024 m 128,-1,1
 492 1024 492 1024 582 934 c 128,-1,2
 672 844 672 844 672 717 c 1,3,-1
 467 717 l 1,4,5
 467 760 467 760 437.5 789.5 c 128,-1,6
 408 819 408 819 365 819 c 128,-1,7
 322 819 322 819 292 789.5 c 128,-1,8
 262 760 262 760 262 717 c 1,9,10
 260 674 260 674 291 644 c 128,-1,11
 322 614 322 614 362 614 c 0,12,13
 487 612 487 612 575.5 522 c 128,-1,14
 664 432 664 432 664 307 c 0,15,16
 664 180 664 180 573.5 90 c 128,-1,17
 483 0 483 0 356 0 c 128,-1,18
 229 0 229 0 139 90 c 128,-1,19
 49 180 49 180 49 307 c 1,20,-1
 254 307 l 1,21,22
 254 264 254 264 283.5 234.5 c 128,-1,23
 313 205 313 205 356 205 c 128,-1,24
 399 205 399 205 429 234.5 c 128,-1,25
 459 264 459 264 459 307 c 256,26,27
 459 350 459 350 428 380 c 128,-1,28
 397 410 397 410 356 410 c 0,29,30
 231 412 231 412 143 502 c 128,-1,31
 55 592 55 592 55 717 c 1,32,33
 57 844 57 844 147.5 934 c 128,-1,0
 238 1024 238 1024 365 1024 c 128,-1,1
EndSplineSet
Validated: 33
EndChar

StartChar: t
Encoding: 116 116 82
Width: 432
Flags: W
LayerCount: 2
Fore
SplineSet
113 1329 m 1,0,-1
 317 1329 l 1,1,-1
 317 1022 l 1,2,-1
 420 1022 l 1,3,-1
 420 817 l 1,4,-1
 317 817 l 1,5,-1
 317 305 l 2,6,7
 317 264 317 264 347 233.5 c 128,-1,8
 377 203 377 203 420 203 c 1,9,-1
 420 -2 l 1,10,11
 293 -2 293 -2 203 88 c 128,-1,12
 113 178 113 178 113 305 c 2,13,-1
 113 817 l 1,14,-1
 10 817 l 1,15,-1
 10 1022 l 1,16,-1
 113 1022 l 1,17,-1
 113 1329 l 1,0,-1
EndSplineSet
Validated: 1
EndChar

StartChar: u
Encoding: 117 117 83
Width: 786
Flags: W
LayerCount: 2
Fore
SplineSet
86 1024 m 1,0,-1
 291 1024 l 1,1,-1
 291 307 l 2,2,3
 291 303 291 303 292 296 c 128,-1,4
 293 289 293 289 298 271.5 c 128,-1,5
 303 254 303 254 312.5 240.5 c 128,-1,6
 322 227 322 227 343.5 216 c 128,-1,7
 365 205 365 205 393 205 c 0,8,9
 424 205 424 205 446.5 217 c 128,-1,10
 469 229 469 229 478 247.5 c 128,-1,11
 487 266 487 266 491.5 278.5 c 128,-1,12
 496 291 496 291 496 303 c 2,13,-1
 496 1024 l 1,14,-1
 700 1024 l 1,15,-1
 700 0 l 1,16,-1
 496 0 l 1,17,-1
 496 205 l 2,18,19
 496 197 496 197 495 182.5 c 128,-1,20
 494 168 494 168 482.5 133 c 128,-1,21
 471 98 471 98 451.5 71.5 c 128,-1,22
 432 45 432 45 390 22.5 c 128,-1,23
 348 0 348 0 290.5 0 c 128,-1,24
 233 0 233 0 191.5 21.5 c 128,-1,25
 150 43 150 43 130.5 72.5 c 128,-1,26
 111 102 111 102 99.5 132 c 128,-1,27
 88 162 88 162 88 184 c 1,28,-1
 86 205 l 1,29,-1
 86 305 l 1,30,-1
 86 1024 l 1,0,-1
EndSplineSet
Validated: 1
EndChar

StartChar: v
Encoding: 118 118 84
Width: 610
Flags: W
LayerCount: 2
Fore
SplineSet
-2 1024 m 1,0,-1
 203 1024 l 1,1,-1
 305 512 l 1,2,-1
 408 1024 l 1,3,-1
 612 1024 l 1,4,-1
 408 0 l 1,5,-1
 203 0 l 1,6,-1
 -2 1024 l 1,0,-1
EndSplineSet
Validated: 1
EndChar

StartChar: w
Encoding: 119 119 85
Width: 1028
Flags: W
LayerCount: 2
Fore
SplineSet
2 1024 m 1,0,-1
 207 1024 l 1,1,-1
 309 512 l 1,2,-1
 412 1024 l 1,3,-1
 616 1024 l 1,4,-1
 719 512 l 1,5,-1
 821 1024 l 1,6,-1
 1026 1024 l 1,7,-1
 821 0 l 1,8,-1
 616 0 l 1,9,-1
 514 512 l 1,10,-1
 412 0 l 1,11,-1
 207 0 l 1,12,-1
 2 1024 l 1,0,-1
EndSplineSet
Validated: 1
EndChar

StartChar: x
Encoding: 120 120 86
Width: 569
Flags: W
LayerCount: 2
Fore
SplineSet
-23 1024 m 1,0,-1
 182 1024 l 1,1,-1
 285 768 l 1,2,-1
 387 1024 l 1,3,-1
 592 1024 l 1,4,-1
 387 512 l 1,5,-1
 592 0 l 1,6,-1
 387 0 l 1,7,-1
 285 256 l 1,8,-1
 182 0 l 1,9,-1
 -23 0 l 1,10,-1
 182 512 l 1,11,-1
 -23 1024 l 1,0,-1
EndSplineSet
Validated: 1
EndChar

StartChar: y
Encoding: 121 121 87
Width: 610
Flags: W
LayerCount: 2
Fore
SplineSet
-2 1024 m 1,0,-1
 203 1024 l 1,1,-1
 305 512 l 1,2,-1
 408 1024 l 1,3,-1
 612 1024 l 1,4,-1
 408 0 l 1,5,6
 408 -127 408 -127 317.5 -217 c 128,-1,7
 227 -307 227 -307 100 -307 c 1,8,-1
 100 -102 l 1,9,10
 143 -102 143 -102 173 -72.5 c 128,-1,11
 203 -43 203 -43 203 0 c 1,12,-1
 -2 1024 l 1,0,-1
EndSplineSet
Validated: 1
EndChar

StartChar: z
Encoding: 122 122 88
Width: 684
Flags: W
LayerCount: 2
Fore
SplineSet
35 1024 m 1,0,-1
 649 1024 l 1,1,-1
 649 819 l 1,2,-1
 240 205 l 1,3,-1
 649 205 l 1,4,-1
 649 0 l 1,5,-1
 35 0 l 1,6,-1
 35 205 l 1,7,-1
 444 819 l 1,8,-1
 35 819 l 1,9,-1
 35 1024 l 1,0,-1
EndSplineSet
Validated: 1
EndChar

StartChar: braceleft
Encoding: 123 123 89
Width: 519
Flags: W
LayerCount: 2
Fore
SplineSet
487 -203 m 1,0,-1
 503 -203 l 1,1,-1
 503 5 l 1,2,3
 460 5 460 5 429.5 35.5 c 128,-1,4
 399 66 399 66 399 109 c 2,5,-1
 399 408 l 1,6,-1
 399 1333 l 2,7,8
 399 1376 399 1376 429.5 1406.5 c 128,-1,9
 460 1437 460 1437 503 1437 c 1,10,-1
 503 1645 l 1,11,12
 374 1645 374 1645 298.5 1553.5 c 128,-1,13
 223 1462 223 1462 223 1333 c 2,14,-1
 223 963 l 2,15,16
 223 920 223 920 192.5 889.5 c 128,-1,17
 162 859 162 859 119 859 c 1,18,-1
 119 651 l 1,19,20
 162 651 162 651 192.5 621 c 128,-1,21
 223 591 223 591 223 548 c 2,22,-1
 223 109 l 2,23,24
 223 -16 223 -16 293 -106.5 c 128,-1,25
 363 -197 363 -197 487 -203 c 1,0,-1
EndSplineSet
Validated: 9
EndChar

StartChar: bar
Encoding: 124 124 90
Width: 413
Flags: W
LayerCount: 2
Fore
SplineSet
309 -202 m 1,0,-1
 104 -202 l 1,1,-1
 104 1639 l 1,2,-1
 309 1639 l 1,3,-1
 309 -202 l 1,0,-1
EndSplineSet
Validated: 1
EndChar

StartChar: braceright
Encoding: 125 125 91
Width: 519
Flags: W
LayerCount: 2
Fore
SplineSet
135 -203 m 1,0,-1
 119 -203 l 1,1,-1
 119 5 l 1,2,3
 162 5 162 5 192.5 35.5 c 128,-1,4
 223 66 223 66 223 109 c 2,5,-1
 223 408 l 1,6,-1
 223 1333 l 2,7,8
 223 1376 223 1376 192.5 1406.5 c 128,-1,9
 162 1437 162 1437 119 1437 c 1,10,-1
 119 1645 l 1,11,12
 248 1645 248 1645 323.5 1553.5 c 128,-1,13
 399 1462 399 1462 399 1333 c 2,14,-1
 399 963 l 2,15,16
 399 920 399 920 429.5 889.5 c 128,-1,17
 460 859 460 859 503 859 c 1,18,-1
 503 651 l 1,19,20
 460 651 460 651 429.5 621 c 128,-1,21
 399 591 399 591 399 548 c 2,22,-1
 399 109 l 2,23,24
 399 -16 399 -16 329 -106.5 c 128,-1,25
 259 -197 259 -197 135 -203 c 1,0,-1
EndSplineSet
Validated: 1
EndChar

StartChar: asciitilde
Encoding: 126 126 92
Width: 1013
Flags: W
LayerCount: 2
Fore
SplineSet
459 508 m 0,0,1
 571 567 571 567 692 530 c 128,-1,2
 813 493 813 493 872 381 c 1,3,-1
 692 285 l 1,4,5
 672 322 672 322 632 334.5 c 128,-1,6
 592 347 592 347 554 327 c 0,7,8
 442 268 442 268 321 305 c 128,-1,9
 200 342 200 342 141 454 c 1,10,-1
 321 550 l 1,11,12
 341 513 341 513 381.5 500.5 c 128,-1,13
 422 488 422 488 459 508 c 0,0,1
EndSplineSet
Validated: 33
EndChar

StartChar: guillemotleft
Encoding: 171 171 94
Width: 901
Flags: W
LayerCount: 2
Fore
SplineSet
844 956 m 1,0,-1
 844 739 l 1,1,-1
 629 527 l 1,2,-1
 844 314 l 1,3,-1
 844 98 l 1,4,-1
 413 527 l 1,5,-1
 844 956 l 1,0,-1
451 956 m 1,6,-1
 451 739 l 1,7,-1
 236 527 l 1,8,-1
 451 314 l 1,9,-1
 451 98 l 1,10,-1
 20 527 l 1,11,-1
 451 956 l 1,6,-1
EndSplineSet
Validated: 1
EndChar

StartChar: cedilla
Encoding: 184 184 95
Width: 413
Flags: W
LayerCount: 2
Fore
SplineSet
743 104 m 1,0,-1
 845 104 l 1,1,-1
 743 -203 l 1,2,-1
 538 -203 l 1,3,-1
 743 104 l 1,0,-1
EndSplineSet
Validated: 1
EndChar

StartChar: guillemotright
Encoding: 187 187 96
Width: 901
Flags: W
LayerCount: 2
Fore
SplineSet
57 956 m 1,0,-1
 57 739 l 1,1,-1
 271 527 l 1,2,-1
 57 314 l 1,3,-1
 57 98 l 1,4,-1
 488 527 l 1,5,-1
 57 956 l 1,0,-1
450 956 m 1,6,-1
 450 739 l 1,7,-1
 664 527 l 1,8,-1
 450 314 l 1,9,-1
 450 98 l 1,10,-1
 881 527 l 1,11,-1
 450 956 l 1,6,-1
EndSplineSet
Validated: 9
EndChar

StartChar: questiondown
Encoding: 191 191 97
Width: 745
Flags: W
LayerCount: 2
Fore
SplineSet
373 0 m 128,-1,1
 246 0 246 0 156 90 c 128,-1,2
 66 180 66 180 66 307 c 2,3,-1
 66 461 l 2,4,5
 66 541 66 541 109 633 c 0,6,7
 127 672 127 672 179 749.5 c 128,-1,8
 231 827 231 827 246 870 c 1,9,10
 256 905 256 905 262 943 c 128,-1,11
 268 981 268 981 270 1004 c 1,12,-1
 270 1024 l 1,13,-1
 270 1126 l 1,14,-1
 475 1126 l 1,15,-1
 475 973 l 2,16,17
 475 893 475 893 432 801 c 0,18,19
 414 762 414 762 361.5 684 c 128,-1,20
 309 606 309 606 295 563 c 1,21,22
 285 528 285 528 278.5 490.5 c 128,-1,23
 272 453 272 453 270 430 c 1,24,-1
 270 410 l 1,25,-1
 270 307 l 2,26,27
 270 264 270 264 300 234.5 c 128,-1,28
 330 205 330 205 373 205 c 128,-1,29
 416 205 416 205 445.5 234.5 c 128,-1,30
 475 264 475 264 475 307 c 2,31,-1
 475 410 l 1,32,-1
 680 410 l 1,33,-1
 680 307 l 2,34,35
 680 180 680 180 590 90 c 128,-1,0
 500 0 500 0 373 0 c 128,-1,1
475 1229 m 1,36,-1
 270 1229 l 1,37,-1
 270 1434 l 1,38,-1
 475 1434 l 1,39,-1
 475 1229 l 1,36,-1
EndSplineSet
Validated: 1
EndChar

StartChar: Agrave
Encoding: 192 192 98
Width: 825
Flags: W
LayerCount: 2
Fore
SplineSet
209 1739 m 1,0,-1
 412 1739 l 1,1,-1
 565 1485 l 1,2,-1
 414 1485 l 1,3,-1
 209 1739 l 1,0,-1
311 1434 m 1,4,-1
 514 1434 l 1,5,-1
 821 0 l 1,6,-1
 618 0 l 1,7,-1
 557 307 l 1,8,-1
 268 309 l 1,9,-1
 207 0 l 1,10,-1
 4 0 l 1,11,-1
 311 1434 l 1,4,-1
412 1024 m 1,12,-1
 309 510 l 1,13,-1
 516 510 l 1,14,-1
 414 1024 l 1,15,16
 414 1024 414 1024 412 1024 c 1,12,-1
EndSplineSet
Validated: 1
EndChar

StartChar: Aacute
Encoding: 193 193 99
Width: 825
Flags: W
LayerCount: 2
Fore
SplineSet
412 1741 m 1,0,-1
 614 1741 l 1,1,-1
 412 1487 l 1,2,-1
 260 1487 l 1,3,-1
 412 1741 l 1,0,-1
311 1434 m 1,4,-1
 514 1434 l 1,5,-1
 821 0 l 1,6,-1
 618 0 l 1,7,-1
 557 307 l 1,8,-1
 268 309 l 1,9,-1
 207 0 l 1,10,-1
 4 0 l 1,11,-1
 311 1434 l 1,4,-1
412 1024 m 1,12,-1
 309 510 l 1,13,-1
 516 510 l 1,14,-1
 414 1024 l 1,15,16
 414 1024 414 1024 412 1024 c 1,12,-1
EndSplineSet
Validated: 1
EndChar

StartChar: Acircumflex
Encoding: 194 194 100
Width: 825
Flags: W
LayerCount: 2
Fore
SplineSet
307 1739 m 1,0,-1
 512 1739 l 1,1,-1
 715 1485 l 1,2,-1
 539 1485 l 1,3,-1
 410 1640 l 1,4,-1
 281 1485 l 1,5,-1
 104 1485 l 1,6,-1
 307 1739 l 1,0,-1
311 1434 m 1,7,-1
 514 1434 l 1,8,-1
 821 0 l 1,9,-1
 618 0 l 1,10,-1
 557 307 l 1,11,-1
 268 309 l 1,12,-1
 207 0 l 1,13,-1
 4 0 l 1,14,-1
 311 1434 l 1,7,-1
412 1024 m 1,15,-1
 309 510 l 1,16,-1
 516 510 l 1,17,-1
 414 1024 l 1,18,19
 414 1024 414 1024 412 1024 c 1,15,-1
EndSplineSet
Validated: 1
EndChar

StartChar: Adieresis
Encoding: 196 196 101
Width: 817
Flags: W
LayerCount: 2
Fore
SplineSet
102 1739 m 1,0,-1
 305 1739 l 1,1,-1
 305 1536 l 1,2,-1
 102 1536 l 1,3,-1
 102 1739 l 1,0,-1
512 1739 m 1,4,-1
 715 1739 l 1,5,-1
 715 1536 l 1,6,-1
 512 1536 l 1,7,-1
 512 1739 l 1,4,-1
311 1434 m 1,8,-1
 514 1434 l 1,9,-1
 821 0 l 1,10,-1
 618 0 l 1,11,-1
 557 307 l 1,12,-1
 268 309 l 1,13,-1
 207 0 l 1,14,-1
 4 0 l 1,15,-1
 311 1434 l 1,8,-1
412 1024 m 1,16,-1
 309 510 l 1,17,-1
 516 510 l 1,18,-1
 414 1024 l 1,19,20
 414 1024 414 1024 412 1024 c 1,16,-1
EndSplineSet
Validated: 1
EndChar

StartChar: AE
Encoding: 198 198 102
Width: 1267
Flags: W
LayerCount: 2
Fore
SplineSet
516 1432 m 1,0,-1
 1231 1432 l 1,1,-1
 1231 1229 l 1,2,-1
 821 1229 l 1,3,-1
 821 817 l 1,4,-1
 1128 817 l 1,5,-1
 1128 614 l 1,6,-1
 821 614 l 1,7,-1
 821 203 l 1,8,-1
 1231 203 l 1,9,-1
 1231 0 l 1,10,-1
 618 0 l 1,11,-1
 618 305 l 1,12,-1
 309 307 l 1,13,-1
 207 0 l 1,14,-1
 4 0 l 1,15,-1
 516 1432 l 1,0,-1
590 1126 m 1,16,-1
 385 510 l 1,17,-1
 618 510 l 1,18,-1
 618 1126 l 1,19,-1
 590 1126 l 1,16,-1
EndSplineSet
Validated: 1
EndChar

StartChar: Egrave
Encoding: 200 200 103
Width: 749
Flags: W
LayerCount: 2
Fore
SplineSet
354 1741 m 1,0,-1
 150 1741 l 1,1,-1
 354 1485 l 1,2,-1
 508 1485 l 1,3,-1
 354 1741 l 1,0,-1
98 0 m 1,4,-1
 98 1434 l 1,5,-1
 713 1434 l 1,6,-1
 713 1229 l 1,7,-1
 303 1229 l 1,8,-1
 303 819 l 1,9,-1
 610 819 l 1,10,-1
 610 614 l 1,11,-1
 303 614 l 1,12,-1
 303 205 l 1,13,-1
 713 205 l 1,14,-1
 713 0 l 1,15,-1
 98 0 l 1,4,-1
EndSplineSet
Validated: 9
EndChar

StartChar: Eacute
Encoding: 201 201 104
Width: 749
Flags: W
LayerCount: 2
Fore
SplineSet
406 1741 m 1,0,-1
 610 1741 l 1,1,-1
 406 1485 l 1,2,-1
 252 1485 l 1,3,-1
 406 1741 l 1,0,-1
98 0 m 1,4,-1
 98 1434 l 1,5,-1
 713 1434 l 1,6,-1
 713 1229 l 1,7,-1
 303 1229 l 1,8,-1
 303 819 l 1,9,-1
 610 819 l 1,10,-1
 610 614 l 1,11,-1
 303 614 l 1,12,-1
 303 205 l 1,13,-1
 713 205 l 1,14,-1
 713 0 l 1,15,-1
 98 0 l 1,4,-1
EndSplineSet
Validated: 1
EndChar

StartChar: Ecircumflex
Encoding: 202 202 105
Width: 749
Flags: W
LayerCount: 2
Fore
SplineSet
303 1741 m 1,0,-1
 508 1741 l 1,1,-1
 713 1485 l 1,2,-1
 532 1485 l 1,3,-1
 406 1638 l 1,4,-1
 279 1485 l 1,5,-1
 98 1485 l 1,6,-1
 303 1741 l 1,0,-1
98 0 m 1,7,-1
 98 1434 l 1,8,-1
 713 1434 l 1,9,-1
 713 1229 l 1,10,-1
 303 1229 l 1,11,-1
 303 819 l 1,12,-1
 610 819 l 1,13,-1
 610 614 l 1,14,-1
 303 614 l 1,15,-1
 303 205 l 1,16,-1
 713 205 l 1,17,-1
 713 0 l 1,18,-1
 98 0 l 1,7,-1
EndSplineSet
Validated: 1
EndChar

StartChar: Edieresis
Encoding: 203 203 106
Width: 749
Flags: W
LayerCount: 2
Fore
SplineSet
98 1741 m 1,0,-1
 303 1741 l 1,1,-1
 303 1536 l 1,2,-1
 98 1536 l 1,3,-1
 98 1741 l 1,0,-1
508 1741 m 1,4,-1
 713 1741 l 1,5,-1
 713 1536 l 1,6,-1
 508 1536 l 1,7,-1
 508 1741 l 1,4,-1
98 0 m 1,8,-1
 98 1434 l 1,9,-1
 713 1434 l 1,10,-1
 713 1229 l 1,11,-1
 303 1229 l 1,12,-1
 303 819 l 1,13,-1
 610 819 l 1,14,-1
 610 614 l 1,15,-1
 303 614 l 1,16,-1
 303 205 l 1,17,-1
 713 205 l 1,18,-1
 713 0 l 1,19,-1
 98 0 l 1,8,-1
EndSplineSet
Validated: 1
EndChar

StartChar: Igrave
Encoding: 204 204 107
Width: 413
Flags: W
LayerCount: 2
Fore
SplineSet
131 1741 m 1,0,-1
 -74 1741 l 1,1,-1
 131 1485 l 1,2,-1
 285 1485 l 1,3,-1
 131 1741 l 1,0,-1
309 0 m 1,4,-1
 104 0 l 1,5,-1
 104 1434 l 1,6,-1
 309 1434 l 1,7,-1
 309 0 l 1,4,-1
EndSplineSet
Validated: 9
EndChar

StartChar: Iacute
Encoding: 205 205 108
Width: 413
Flags: W
LayerCount: 2
Fore
SplineSet
291 1739 m 1,0,-1
 496 1739 l 1,1,-1
 291 1483 l 1,2,-1
 137 1483 l 1,3,-1
 291 1739 l 1,0,-1
309 0 m 1,4,-1
 104 0 l 1,5,-1
 104 1434 l 1,6,-1
 309 1434 l 1,7,-1
 309 0 l 1,4,-1
EndSplineSet
Validated: 1
EndChar

StartChar: Icircumflex
Encoding: 206 206 109
Width: 401
Flags: W
LayerCount: 2
Fore
SplineSet
98 1741 m 1,0,-1
 303 1741 l 1,1,-1
 508 1485 l 1,2,-1
 328 1485 l 1,3,-1
 201 1638 l 1,4,-1
 72 1485 l 1,5,-1
 -106 1485 l 1,6,-1
 98 1741 l 1,0,-1
303 0 m 1,7,-1
 98 0 l 1,8,-1
 98 1434 l 1,9,-1
 303 1434 l 1,10,-1
 303 0 l 1,7,-1
EndSplineSet
Validated: 1
EndChar

StartChar: Idieresis
Encoding: 207 207 110
Width: 479
Flags: W
LayerCount: 2
Fore
SplineSet
-68 1741 m 1,0,-1
 137 1741 l 1,1,-1
 137 1536 l 1,2,-1
 -68 1536 l 1,3,-1
 -68 1741 l 1,0,-1
342 1741 m 1,4,-1
 547 1741 l 1,5,-1
 547 1536 l 1,6,-1
 342 1536 l 1,7,-1
 342 1741 l 1,4,-1
137 1434 m 1,8,-1
 342 1434 l 1,9,-1
 342 0 l 1,10,-1
 137 0 l 1,11,-1
 137 1434 l 1,8,-1
EndSplineSet
Validated: 1
EndChar

StartChar: Ograve
Encoding: 210 210 111
Width: 786
Flags: W
LayerCount: 2
Fore
SplineSet
184 1737 m 1,0,-1
 387 1737 l 1,1,-1
 541 1483 l 1,2,-1
 389 1483 l 1,3,-1
 184 1737 l 1,0,-1
393 1434 m 128,-1,5
 520 1434 520 1434 610 1343.5 c 128,-1,6
 700 1253 700 1253 700 1126 c 2,7,-1
 700 307 l 2,8,9
 700 180 700 180 610 90 c 128,-1,10
 520 0 520 0 393 0 c 128,-1,11
 266 0 266 0 176 90 c 128,-1,12
 86 180 86 180 86 307 c 2,13,-1
 86 1126 l 2,14,15
 86 1253 86 1253 176 1343.5 c 128,-1,4
 266 1434 266 1434 393 1434 c 128,-1,5
393 1229 m 128,-1,17
 350 1229 350 1229 320.5 1199 c 128,-1,18
 291 1169 291 1169 291 1126 c 2,19,-1
 291 836 l 1,20,-1
 291 596 l 1,21,-1
 291 307 l 2,22,23
 291 264 291 264 320.5 234.5 c 128,-1,24
 350 205 350 205 393 205 c 128,-1,25
 436 205 436 205 466 234.5 c 128,-1,26
 496 264 496 264 496 307 c 2,27,-1
 496 596 l 1,28,-1
 496 836 l 1,29,-1
 496 1126 l 2,30,31
 496 1169 496 1169 466 1199 c 128,-1,16
 436 1229 436 1229 393 1229 c 128,-1,17
EndSplineSet
Validated: 1
EndChar

StartChar: Oacute
Encoding: 211 211 112
Width: 786
Flags: W
LayerCount: 2
Fore
SplineSet
389 1737 m 1,0,-1
 592 1737 l 1,1,-1
 389 1483 l 1,2,-1
 238 1483 l 1,3,-1
 389 1737 l 1,0,-1
393 1434 m 128,-1,5
 520 1434 520 1434 610 1343.5 c 128,-1,6
 700 1253 700 1253 700 1126 c 2,7,-1
 700 307 l 2,8,9
 700 180 700 180 610 90 c 128,-1,10
 520 0 520 0 393 0 c 128,-1,11
 266 0 266 0 176 90 c 128,-1,12
 86 180 86 180 86 307 c 2,13,-1
 86 1126 l 2,14,15
 86 1253 86 1253 176 1343.5 c 128,-1,4
 266 1434 266 1434 393 1434 c 128,-1,5
393 1229 m 128,-1,17
 350 1229 350 1229 320.5 1199 c 128,-1,18
 291 1169 291 1169 291 1126 c 2,19,-1
 291 836 l 1,20,-1
 291 596 l 1,21,-1
 291 307 l 2,22,23
 291 264 291 264 320.5 234.5 c 128,-1,24
 350 205 350 205 393 205 c 128,-1,25
 436 205 436 205 466 234.5 c 128,-1,26
 496 264 496 264 496 307 c 2,27,-1
 496 596 l 1,28,-1
 496 836 l 1,29,-1
 496 1126 l 2,30,31
 496 1169 496 1169 466 1199 c 128,-1,16
 436 1229 436 1229 393 1229 c 128,-1,17
EndSplineSet
Validated: 1
EndChar

StartChar: Ocircumflex
Encoding: 212 212 113
Width: 786
Flags: W
LayerCount: 2
Fore
SplineSet
289 1737 m 1,0,-1
 494 1737 l 1,1,-1
 696 1483 l 1,2,-1
 520 1483 l 1,3,-1
 391 1638 l 1,4,-1
 262 1483 l 1,5,-1
 86 1483 l 1,6,-1
 289 1737 l 1,0,-1
393 1434 m 128,-1,8
 520 1434 520 1434 610 1343.5 c 128,-1,9
 700 1253 700 1253 700 1126 c 2,10,-1
 700 307 l 2,11,12
 700 180 700 180 610 90 c 128,-1,13
 520 0 520 0 393 0 c 128,-1,14
 266 0 266 0 176 90 c 128,-1,15
 86 180 86 180 86 307 c 2,16,-1
 86 1126 l 2,17,18
 86 1253 86 1253 176 1343.5 c 128,-1,7
 266 1434 266 1434 393 1434 c 128,-1,8
393 1229 m 128,-1,20
 350 1229 350 1229 320.5 1199 c 128,-1,21
 291 1169 291 1169 291 1126 c 2,22,-1
 291 836 l 1,23,-1
 291 596 l 1,24,-1
 291 307 l 2,25,26
 291 264 291 264 320.5 234.5 c 128,-1,27
 350 205 350 205 393 205 c 128,-1,28
 436 205 436 205 466 234.5 c 128,-1,29
 496 264 496 264 496 307 c 2,30,-1
 496 596 l 1,31,-1
 496 836 l 1,32,-1
 496 1126 l 2,33,34
 496 1169 496 1169 466 1199 c 128,-1,19
 436 1229 436 1229 393 1229 c 128,-1,20
EndSplineSet
Validated: 1
EndChar

StartChar: multiply
Encoding: 215 215 116
Width: 917
Flags: W
LayerCount: 2
Fore
SplineSet
821 532 m 1,0,-1
 676 387 l 1,1,-1
 458 604 l 1,2,-1
 241 387 l 1,3,-1
 95 532 l 1,4,-1
 313 749 l 1,5,-1
 95 967 l 1,6,-1
 241 1112 l 1,7,-1
 458 895 l 1,8,-1
 676 1112 l 1,9,-1
 821 967 l 1,10,-1
 604 749 l 1,11,-1
 821 532 l 1,0,-1
EndSplineSet
Validated: 1
EndChar

StartChar: Ugrave
Encoding: 217 217 117
Width: 811
Flags: W
LayerCount: 2
Fore
SplineSet
133 1739 m 1,0,-1
 336 1739 l 1,1,-1
 489 1485 l 1,2,-1
 338 1485 l 1,3,-1
 133 1739 l 1,0,-1
98 1434 m 1,4,-1
 303 1434 l 1,5,-1
 303 307 l 2,6,7
 303 264 303 264 332.5 234.5 c 128,-1,8
 362 205 362 205 405.5 205 c 128,-1,9
 449 205 449 205 478.5 234.5 c 128,-1,10
 508 264 508 264 508 307 c 2,11,-1
 508 1434 l 1,12,-1
 713 1434 l 1,13,-1
 713 307 l 2,14,15
 713 180 713 180 622.5 90 c 128,-1,16
 532 0 532 0 405.5 0 c 128,-1,17
 279 0 279 0 188.5 90 c 128,-1,18
 98 180 98 180 98 307 c 2,19,-1
 98 1434 l 1,4,-1
EndSplineSet
Validated: 1
EndChar

StartChar: Uacute
Encoding: 218 218 118
Width: 811
Flags: W
LayerCount: 2
Fore
SplineSet
477 1745 m 1,0,-1
 680 1745 l 1,1,-1
 477 1491 l 1,2,-1
 326 1491 l 1,3,-1
 477 1745 l 1,0,-1
98 1434 m 1,4,-1
 303 1434 l 1,5,-1
 303 307 l 2,6,7
 303 264 303 264 332.5 234.5 c 128,-1,8
 362 205 362 205 405.5 205 c 128,-1,9
 449 205 449 205 478.5 234.5 c 128,-1,10
 508 264 508 264 508 307 c 2,11,-1
 508 1434 l 1,12,-1
 713 1434 l 1,13,-1
 713 307 l 2,14,15
 713 180 713 180 622.5 90 c 128,-1,16
 532 0 532 0 405.5 0 c 128,-1,17
 279 0 279 0 188.5 90 c 128,-1,18
 98 180 98 180 98 307 c 2,19,-1
 98 1434 l 1,4,-1
EndSplineSet
Validated: 1
EndChar

StartChar: Ucircumflex
Encoding: 219 219 119
Width: 811
Flags: W
LayerCount: 2
Fore
SplineSet
307 1739 m 1,0,-1
 512 1739 l 1,1,-1
 715 1485 l 1,2,-1
 539 1485 l 1,3,-1
 410 1640 l 1,4,-1
 281 1485 l 1,5,-1
 104 1485 l 1,6,-1
 307 1739 l 1,0,-1
98 1434 m 1,7,-1
 303 1434 l 1,8,-1
 303 307 l 2,9,10
 303 264 303 264 332.5 234.5 c 128,-1,11
 362 205 362 205 405.5 205 c 128,-1,12
 449 205 449 205 478.5 234.5 c 128,-1,13
 508 264 508 264 508 307 c 2,14,-1
 508 1434 l 1,15,-1
 713 1434 l 1,16,-1
 713 307 l 2,17,18
 713 180 713 180 622.5 90 c 128,-1,19
 532 0 532 0 405.5 0 c 128,-1,20
 279 0 279 0 188.5 90 c 128,-1,21
 98 180 98 180 98 307 c 2,22,-1
 98 1434 l 1,7,-1
EndSplineSet
Validated: 1
EndChar

StartChar: Udieresis
Encoding: 220 220 120
Width: 811
Flags: W
LayerCount: 2
Fore
SplineSet
102 1739 m 1,0,-1
 305 1739 l 1,1,-1
 305 1536 l 1,2,-1
 102 1536 l 1,3,-1
 102 1739 l 1,0,-1
512 1739 m 1,4,-1
 715 1739 l 1,5,-1
 715 1536 l 1,6,-1
 512 1536 l 1,7,-1
 512 1739 l 1,4,-1
98 1434 m 1,8,-1
 303 1434 l 1,9,-1
 303 307 l 2,10,11
 303 264 303 264 332.5 234.5 c 128,-1,12
 362 205 362 205 405.5 205 c 128,-1,13
 449 205 449 205 478.5 234.5 c 128,-1,14
 508 264 508 264 508 307 c 2,15,-1
 508 1434 l 1,16,-1
 713 1434 l 1,17,-1
 713 307 l 2,18,19
 713 180 713 180 622.5 90 c 128,-1,20
 532 0 532 0 405.5 0 c 128,-1,21
 279 0 279 0 188.5 90 c 128,-1,22
 98 180 98 180 98 307 c 2,23,-1
 98 1434 l 1,8,-1
EndSplineSet
Validated: 1
EndChar

StartChar: agrave
Encoding: 224 224 121
Width: 733
Flags: W
LayerCount: 2
Fore
SplineSet
74 1434 m 1,0,-1
 277 1434 l 1,1,-1
 430 1180 l 1,2,-1
 279 1180 l 1,3,-1
 74 1434 l 1,0,-1
358 1024 m 128,-1,5
 485 1024 485 1024 575.5 934 c 128,-1,6
 666 844 666 844 666 717 c 2,7,-1
 666 0 l 1,8,-1
 459 0 l 1,9,-1
 460 182 l 2,10,11
 460 171 460 171 447 133 c 0,12,13
 436 98 436 98 416.5 71.5 c 128,-1,14
 397 45 397 45 355 22.5 c 128,-1,15
 313 0 313 0 256 0 c 128,-1,16
 199 0 199 0 157 21.5 c 128,-1,17
 115 43 115 43 95.5 72.5 c 128,-1,18
 76 102 76 102 64.5 132 c 128,-1,19
 53 162 53 162 53 184 c 1,20,-1
 51 205 l 1,21,-1
 51 307 l 2,22,23
 51 434 51 434 141 524 c 128,-1,24
 231 614 231 614 358 614 c 0,25,26
 401 614 401 614 431 644 c 128,-1,27
 461 674 461 674 461 717 c 128,-1,28
 461 760 461 760 431 789.5 c 128,-1,29
 401 819 401 819 358 819 c 128,-1,30
 315 819 315 819 285.5 789.5 c 128,-1,31
 256 760 256 760 256 717 c 1,32,-1
 51 717 l 1,33,34
 51 844 51 844 141 934 c 128,-1,4
 231 1024 231 1024 358 1024 c 128,-1,5
358 205 m 0,35,36
 403 205 403 205 429 230.5 c 128,-1,37
 455 256 455 256 459 281 c 1,38,-1
 461 307 l 1,39,-1
 461 428 l 1,40,41
 412 410 412 410 358 410 c 0,42,43
 315 410 315 410 285.5 380 c 128,-1,44
 256 350 256 350 256 307 c 0,45,46
 256 303 256 303 257 296 c 128,-1,47
 258 289 258 289 263 271.5 c 128,-1,48
 268 254 268 254 277.5 240.5 c 128,-1,49
 287 227 287 227 308 216 c 128,-1,50
 329 205 329 205 358 205 c 0,35,36
EndSplineSet
Validated: 5
EndChar

StartChar: aacute
Encoding: 225 225 122
Width: 733
Flags: W
LayerCount: 2
Fore
SplineSet
449 1434 m 1,0,-1
 651 1434 l 1,1,-1
 449 1180 l 1,2,-1
 297 1180 l 1,3,-1
 449 1434 l 1,0,-1
358 1024 m 128,-1,5
 485 1024 485 1024 575.5 934 c 128,-1,6
 666 844 666 844 666 717 c 2,7,-1
 666 0 l 1,8,-1
 459 0 l 1,9,-1
 460 182 l 2,10,11
 460 171 460 171 447 133 c 0,12,13
 436 98 436 98 416.5 71.5 c 128,-1,14
 397 45 397 45 355 22.5 c 128,-1,15
 313 0 313 0 256 0 c 128,-1,16
 199 0 199 0 157 21.5 c 128,-1,17
 115 43 115 43 95.5 72.5 c 128,-1,18
 76 102 76 102 64.5 132 c 128,-1,19
 53 162 53 162 53 184 c 1,20,-1
 51 205 l 1,21,-1
 51 307 l 2,22,23
 51 434 51 434 141 524 c 128,-1,24
 231 614 231 614 358 614 c 0,25,26
 401 614 401 614 431 644 c 128,-1,27
 461 674 461 674 461 717 c 128,-1,28
 461 760 461 760 431 789.5 c 128,-1,29
 401 819 401 819 358 819 c 128,-1,30
 315 819 315 819 285.5 789.5 c 128,-1,31
 256 760 256 760 256 717 c 1,32,-1
 51 717 l 1,33,34
 51 844 51 844 141 934 c 128,-1,4
 231 1024 231 1024 358 1024 c 128,-1,5
358 205 m 0,35,36
 403 205 403 205 429 230.5 c 128,-1,37
 455 256 455 256 459 281 c 1,38,-1
 461 307 l 1,39,-1
 461 428 l 1,40,41
 412 410 412 410 358 410 c 0,42,43
 315 410 315 410 285.5 380 c 128,-1,44
 256 350 256 350 256 307 c 0,45,46
 256 303 256 303 257 296 c 128,-1,47
 258 289 258 289 263 271.5 c 128,-1,48
 268 254 268 254 277.5 240.5 c 128,-1,49
 287 227 287 227 308 216 c 128,-1,50
 329 205 329 205 358 205 c 0,35,36
EndSplineSet
Validated: 5
EndChar

StartChar: adieresis
Encoding: 228 228 124
Width: 733
Flags: W
LayerCount: 2
Fore
SplineSet
51 1432 m 1,0,-1
 254 1432 l 1,1,-1
 254 1229 l 1,2,-1
 51 1229 l 1,3,-1
 51 1432 l 1,0,-1
461 1432 m 1,4,-1
 664 1432 l 1,5,-1
 664 1229 l 1,6,-1
 461 1229 l 1,7,-1
 461 1432 l 1,4,-1
358 1024 m 128,-1,9
 485 1024 485 1024 575.5 934 c 128,-1,10
 666 844 666 844 666 717 c 2,11,-1
 666 0 l 1,12,-1
 459 0 l 1,13,-1
 460 182 l 2,14,15
 460 171 460 171 447 133 c 0,16,17
 436 98 436 98 416.5 71.5 c 128,-1,18
 397 45 397 45 355 22.5 c 128,-1,19
 313 0 313 0 256 0 c 128,-1,20
 199 0 199 0 157 21.5 c 128,-1,21
 115 43 115 43 95.5 72.5 c 128,-1,22
 76 102 76 102 64.5 132 c 128,-1,23
 53 162 53 162 53 184 c 1,24,-1
 51 205 l 1,25,-1
 51 307 l 2,26,27
 51 434 51 434 141 524 c 128,-1,28
 231 614 231 614 358 614 c 0,29,30
 401 614 401 614 431 644 c 128,-1,31
 461 674 461 674 461 717 c 128,-1,32
 461 760 461 760 431 789.5 c 128,-1,33
 401 819 401 819 358 819 c 128,-1,34
 315 819 315 819 285.5 789.5 c 128,-1,35
 256 760 256 760 256 717 c 1,36,-1
 51 717 l 1,37,38
 51 844 51 844 141 934 c 128,-1,8
 231 1024 231 1024 358 1024 c 128,-1,9
358 205 m 0,39,40
 403 205 403 205 429 230.5 c 128,-1,41
 455 256 455 256 459 281 c 1,42,-1
 461 307 l 1,43,-1
 461 428 l 1,44,45
 412 410 412 410 358 410 c 0,46,47
 315 410 315 410 285.5 380 c 128,-1,48
 256 350 256 350 256 307 c 0,49,50
 256 303 256 303 257 296 c 128,-1,51
 258 289 258 289 263 271.5 c 128,-1,52
 268 254 268 254 277.5 240.5 c 128,-1,53
 287 227 287 227 308 216 c 128,-1,54
 329 205 329 205 358 205 c 0,39,40
EndSplineSet
Validated: 5
EndChar

StartChar: ae
Encoding: 230 230 125
Width: 1146
Flags: W
LayerCount: 2
Fore
SplineSet
770 1028 m 128,-1,1
 897 1028 897 1028 986 938 c 128,-1,2
 1075 848 1075 848 1075 721 c 2,3,-1
 1075 618 l 1,4,-1
 1075 416 l 1,5,-1
 870 416 l 1,6,-1
 668 416 l 1,7,-1
 668 313 l 2,8,9
 668 270 668 270 697.5 240.5 c 128,-1,10
 727 211 727 211 769 211 c 128,-1,11
 811 211 811 211 840.5 240.5 c 128,-1,12
 870 270 870 270 870 313 c 1,13,-1
 1075 313 l 1,14,15
 1075 186 1075 186 986 96 c 128,-1,16
 897 6 897 6 770 6 c 128,-1,17
 643 6 643 6 553 96 c 128,-1,18
 463 186 463 186 463 313 c 2,19,-1
 463 721 l 2,20,21
 463 848 463 848 553 938 c 128,-1,0
 643 1028 643 1028 770 1028 c 128,-1,1
672 618 m 1,22,-1
 874 618 l 1,23,-1
 874 721 l 2,24,25
 874 764 874 764 844.5 793.5 c 128,-1,26
 815 823 815 823 773 823 c 128,-1,27
 731 823 731 823 701.5 793.5 c 128,-1,28
 672 764 672 764 672 721 c 2,29,-1
 672 618 l 1,22,-1
365 1028 m 128,-1,31
 492 1028 492 1028 581 938 c 128,-1,32
 670 848 670 848 670 721 c 2,33,-1
 670 227 l 1,34,-1
 506 227 l 1,35,-1
 532 215 l 2,36,37
 520 221 520 221 497 190 c 0,38,39
 486 176 486 176 475.5 141 c 128,-1,40
 465 106 465 106 445.5 79.5 c 128,-1,41
 426 53 426 53 384 30.5 c 128,-1,42
 342 8 342 8 284.5 8 c 128,-1,43
 227 8 227 8 174 28.5 c 128,-1,44
 121 49 121 49 101.5 79 c 128,-1,45
 82 109 82 109 70.5 138.5 c 128,-1,46
 59 168 59 168 59 190 c 1,47,-1
 57 211 l 1,48,-1
 57 313 l 2,49,50
 57 440 57 440 147.5 529 c 128,-1,51
 238 618 238 618 365 618 c 0,52,53
 406 618 406 618 436.5 649 c 128,-1,54
 467 680 467 680 467 722 c 128,-1,55
 467 764 467 764 436.5 793.5 c 128,-1,56
 406 823 406 823 364 823 c 128,-1,57
 322 823 322 823 292 793.5 c 128,-1,58
 262 764 262 764 262 721 c 1,59,-1
 57 721 l 1,60,61
 57 848 57 848 147.5 938 c 128,-1,30
 238 1028 238 1028 365 1028 c 128,-1,31
358 211 m 0,62,63
 444 211 444 211 459 297 c 0,64,65
 461 307 461 307 461 313 c 2,66,-1
 461 432 l 1,67,68
 410 416 410 416 358 416 c 0,69,70
 315 416 315 416 285.5 385 c 128,-1,71
 256 354 256 354 256 313 c 0,72,73
 256 309 256 309 256 302 c 128,-1,74
 256 295 256 295 262 277.5 c 128,-1,75
 268 260 268 260 277.5 246.5 c 128,-1,76
 287 233 287 233 308 222 c 128,-1,77
 329 211 329 211 358 211 c 0,62,63
EndSplineSet
Validated: 5
EndChar

StartChar: eacute
Encoding: 233 233 128
Width: 749
Flags: W
LayerCount: 2
Fore
SplineSet
454 1485 m 1,0,-1
 658 1485 l 1,1,-1
 454 1229 l 1,2,-1
 300 1229 l 1,3,-1
 454 1485 l 1,0,-1
375 1024 m 128,-1,5
 502 1024 502 1024 592 934 c 128,-1,6
 682 844 682 844 682 717 c 2,7,-1
 682 614 l 1,8,-1
 682 410 l 1,9,-1
 477 410 l 1,10,-1
 272 410 l 1,11,-1
 272 307 l 2,12,13
 272 264 272 264 302 234.5 c 128,-1,14
 332 205 332 205 375 205 c 128,-1,15
 418 205 418 205 447.5 234.5 c 128,-1,16
 477 264 477 264 477 307 c 1,17,-1
 682 307 l 1,18,19
 682 180 682 180 592 90 c 128,-1,20
 502 0 502 0 375 0 c 128,-1,21
 248 0 248 0 158 90 c 128,-1,22
 68 180 68 180 68 307 c 2,23,-1
 68 717 l 2,24,25
 68 844 68 844 158 934 c 128,-1,4
 248 1024 248 1024 375 1024 c 128,-1,5
272 614 m 1,26,-1
 477 614 l 1,27,-1
 477 717 l 2,28,29
 477 760 477 760 447.5 789.5 c 128,-1,30
 418 819 418 819 375 819 c 128,-1,31
 332 819 332 819 302 789.5 c 128,-1,32
 272 760 272 760 272 717 c 2,33,-1
 272 614 l 1,26,-1
EndSplineSet
Validated: 1
EndChar

StartChar: ecircumflex
Encoding: 234 234 129
Width: 749
Flags: W
LayerCount: 2
Fore
SplineSet
272 1487 m 1,0,-1
 477 1487 l 1,1,-1
 682 1231 l 1,2,-1
 502 1231 l 1,3,-1
 375 1384 l 1,4,-1
 248 1231 l 1,5,-1
 68 1231 l 1,6,-1
 272 1487 l 1,0,-1
374 1024 m 128,-1,8
 501 1024 501 1024 591 934 c 128,-1,9
 681 844 681 844 681 717 c 2,10,-1
 681 614 l 1,11,-1
 681 410 l 1,12,-1
 476 410 l 1,13,-1
 271 410 l 1,14,-1
 271 307 l 2,15,16
 271 264 271 264 301 234.5 c 128,-1,17
 331 205 331 205 374 205 c 128,-1,18
 417 205 417 205 446.5 234.5 c 128,-1,19
 476 264 476 264 476 307 c 1,20,-1
 681 307 l 1,21,22
 681 180 681 180 591 90 c 128,-1,23
 501 0 501 0 374 0 c 128,-1,24
 247 0 247 0 157 90 c 128,-1,25
 67 180 67 180 67 307 c 2,26,-1
 67 717 l 2,27,28
 67 844 67 844 157 934 c 128,-1,7
 247 1024 247 1024 374 1024 c 128,-1,8
271 614 m 1,29,-1
 476 614 l 1,30,-1
 476 717 l 2,31,32
 476 760 476 760 446.5 789.5 c 128,-1,33
 417 819 417 819 374 819 c 128,-1,34
 331 819 331 819 301 789.5 c 128,-1,35
 271 760 271 760 271 717 c 2,36,-1
 271 614 l 1,29,-1
EndSplineSet
Validated: 1
EndChar

StartChar: edieresis
Encoding: 235 235 130
Width: 749
Flags: W
LayerCount: 2
Fore
SplineSet
68 1432 m 1,0,-1
 272 1432 l 1,1,-1
 272 1227 l 1,2,-1
 68 1227 l 1,3,-1
 68 1432 l 1,0,-1
477 1432 m 1,4,-1
 682 1432 l 1,5,-1
 682 1227 l 1,6,-1
 477 1227 l 1,7,-1
 477 1432 l 1,4,-1
375 1024 m 128,-1,9
 502 1024 502 1024 592 934 c 128,-1,10
 682 844 682 844 682 717 c 2,11,-1
 682 614 l 1,12,-1
 682 410 l 1,13,-1
 477 410 l 1,14,-1
 272 410 l 1,15,-1
 272 307 l 2,16,17
 272 264 272 264 302 234.5 c 128,-1,18
 332 205 332 205 375 205 c 128,-1,19
 418 205 418 205 447.5 234.5 c 128,-1,20
 477 264 477 264 477 307 c 1,21,-1
 682 307 l 1,22,23
 682 180 682 180 592 90 c 128,-1,24
 502 0 502 0 375 0 c 128,-1,25
 248 0 248 0 158 90 c 128,-1,26
 68 180 68 180 68 307 c 2,27,-1
 68 717 l 2,28,29
 68 844 68 844 158 934 c 128,-1,8
 248 1024 248 1024 375 1024 c 128,-1,9
272 614 m 1,30,-1
 477 614 l 1,31,-1
 477 717 l 2,32,33
 477 760 477 760 447.5 789.5 c 128,-1,34
 418 819 418 819 375 819 c 128,-1,35
 332 819 332 819 302 789.5 c 128,-1,36
 272 760 272 760 272 717 c 2,37,-1
 272 614 l 1,30,-1
EndSplineSet
Validated: 1
EndChar

StartChar: igrave
Encoding: 236 236 131
Width: 391
Flags: W
LayerCount: 2
Fore
SplineSet
125 1434 m 1,0,-1
 -80 1434 l 1,1,-1
 125 1178 l 1,2,-1
 279 1178 l 1,3,-1
 125 1434 l 1,0,-1
101 1024 m 1,4,-1
 306 1024 l 1,5,-1
 306 0 l 1,6,-1
 101 0 l 1,7,-1
 101 1024 l 1,4,-1
EndSplineSet
Validated: 9
EndChar

StartChar: iacute
Encoding: 237 237 132
Width: 368
Flags: W
LayerCount: 2
Fore
SplineSet
243 1434 m 1,0,-1
 448 1434 l 1,1,-1
 243 1178 l 1,2,-1
 90 1178 l 1,3,-1
 243 1434 l 1,0,-1
86 1024 m 1,4,-1
 291 1024 l 1,5,-1
 291 0 l 1,6,-1
 86 0 l 1,7,-1
 86 1024 l 1,4,-1
EndSplineSet
Validated: 1
EndChar

StartChar: icircumflex
Encoding: 238 238 133
Width: 401
Flags: W
LayerCount: 2
Fore
SplineSet
104 1024 m 1,0,-1
 309 1024 l 1,1,-1
 309 0 l 1,2,-1
 104 0 l 1,3,-1
 104 1024 l 1,0,-1
98 1485 m 1,4,-1
 303 1485 l 1,5,-1
 508 1229 l 1,6,-1
 328 1229 l 1,7,-1
 201 1382 l 1,8,-1
 72 1229 l 1,9,-1
 -106 1229 l 1,10,-1
 98 1485 l 1,4,-1
EndSplineSet
Validated: 1
EndChar

StartChar: idieresis
Encoding: 239 239 134
Width: 443
Flags: W
LayerCount: 2
Fore
SplineSet
-86 1432 m 1,0,-1
 119 1432 l 1,1,-1
 119 1227 l 1,2,-1
 -86 1227 l 1,3,-1
 -86 1432 l 1,0,-1
324 1432 m 1,4,-1
 528 1432 l 1,5,-1
 528 1227 l 1,6,-1
 324 1227 l 1,7,-1
 324 1432 l 1,4,-1
110 1024 m 1,8,-1
 315 1024 l 1,9,-1
 315 0 l 1,10,-1
 110 0 l 1,11,-1
 110 1024 l 1,8,-1
EndSplineSet
Validated: 1
EndChar

StartChar: ograve
Encoding: 242 242 135
Width: 753
Flags: W
LayerCount: 2
Fore
SplineSet
98 1434 m 1,0,-1
 301 1434 l 1,1,-1
 455 1180 l 1,2,-1
 303 1180 l 1,3,-1
 98 1434 l 1,0,-1
377 1020 m 0,4,5
 504 1020 504 1020 594 932 c 128,-1,6
 684 844 684 844 686 717 c 1,7,-1
 686 305 l 2,8,9
 686 176 686 176 595 86 c 128,-1,10
 504 -4 504 -4 377 -4 c 256,11,12
 250 -4 250 -4 161 84 c 128,-1,13
 72 172 72 172 68 297 c 1,14,-1
 68 305 l 1,15,-1
 68 711 l 2,16,17
 68 840 68 840 158 930 c 128,-1,18
 248 1020 248 1020 377 1020 c 0,4,5
377 813 m 128,-1,20
 334 813 334 813 304 783.5 c 128,-1,21
 274 754 274 754 274 713 c 2,22,-1
 274 305 l 2,23,24
 274 262 274 262 304 232.5 c 128,-1,25
 334 203 334 203 377 203 c 0,26,27
 418 203 418 203 448.5 231.5 c 128,-1,28
 479 260 479 260 479 301 c 2,29,-1
 479 711 l 2,30,31
 479 754 479 754 449.5 783.5 c 128,-1,19
 420 813 420 813 377 813 c 128,-1,20
EndSplineSet
Validated: 1
EndChar

StartChar: oacute
Encoding: 243 243 136
Width: 753
Flags: W
LayerCount: 2
Fore
SplineSet
453 1432 m 1,0,-1
 655 1432 l 1,1,-1
 453 1178 l 1,2,-1
 301 1178 l 1,3,-1
 453 1432 l 1,0,-1
377 1020 m 0,4,5
 504 1020 504 1020 594 932 c 128,-1,6
 684 844 684 844 686 717 c 1,7,-1
 686 305 l 2,8,9
 686 176 686 176 595 86 c 128,-1,10
 504 -4 504 -4 377 -4 c 256,11,12
 250 -4 250 -4 161 84 c 128,-1,13
 72 172 72 172 68 297 c 1,14,-1
 68 305 l 1,15,-1
 68 711 l 2,16,17
 68 840 68 840 158 930 c 128,-1,18
 248 1020 248 1020 377 1020 c 0,4,5
377 813 m 128,-1,20
 334 813 334 813 304 783.5 c 128,-1,21
 274 754 274 754 274 713 c 2,22,-1
 274 305 l 2,23,24
 274 262 274 262 304 232.5 c 128,-1,25
 334 203 334 203 377 203 c 0,26,27
 418 203 418 203 448.5 231.5 c 128,-1,28
 479 260 479 260 479 301 c 2,29,-1
 479 711 l 2,30,31
 479 754 479 754 449.5 783.5 c 128,-1,19
 420 813 420 813 377 813 c 128,-1,20
EndSplineSet
Validated: 1
EndChar

StartChar: ocircumflex
Encoding: 244 244 137
Width: 753
Flags: W
LayerCount: 2
Fore
SplineSet
274 1434 m 1,0,-1
 479 1434 l 1,1,-1
 682 1180 l 1,2,-1
 506 1180 l 1,3,-1
 377 1335 l 1,4,-1
 248 1180 l 1,5,-1
 72 1180 l 1,6,-1
 274 1434 l 1,0,-1
377 1020 m 0,7,8
 504 1020 504 1020 594 932 c 128,-1,9
 684 844 684 844 686 717 c 1,10,-1
 686 305 l 2,11,12
 686 176 686 176 595 86 c 128,-1,13
 504 -4 504 -4 377 -4 c 256,14,15
 250 -4 250 -4 161 84 c 128,-1,16
 72 172 72 172 68 297 c 1,17,-1
 68 305 l 1,18,-1
 68 711 l 2,19,20
 68 840 68 840 158 930 c 128,-1,21
 248 1020 248 1020 377 1020 c 0,7,8
377 813 m 128,-1,23
 334 813 334 813 304 783.5 c 128,-1,24
 274 754 274 754 274 713 c 2,25,-1
 274 305 l 2,26,27
 274 262 274 262 304 232.5 c 128,-1,28
 334 203 334 203 377 203 c 0,29,30
 418 203 418 203 448.5 231.5 c 128,-1,31
 479 260 479 260 479 301 c 2,32,-1
 479 711 l 2,33,34
 479 754 479 754 449.5 783.5 c 128,-1,22
 420 813 420 813 377 813 c 128,-1,23
EndSplineSet
Validated: 1
EndChar

StartChar: odieresis
Encoding: 246 246 138
Width: 770
Flags: W
LayerCount: 2
Fore
SplineSet
68 1432 m 1,0,-1
 270 1432 l 1,1,-1
 270 1229 l 1,2,-1
 68 1229 l 1,3,-1
 68 1432 l 1,0,-1
477 1432 m 1,4,-1
 680 1432 l 1,5,-1
 680 1229 l 1,6,-1
 477 1229 l 1,7,-1
 477 1432 l 1,4,-1
393 1020 m 0,8,9
 520 1020 520 1020 610 932 c 128,-1,10
 700 844 700 844 702 717 c 1,11,-1
 702 305 l 2,12,13
 702 176 702 176 611 86 c 128,-1,14
 520 -4 520 -4 393 -4 c 256,15,16
 266 -4 266 -4 177 84 c 128,-1,17
 88 172 88 172 84 297 c 1,18,-1
 84 305 l 1,19,-1
 84 711 l 2,20,21
 84 840 84 840 174 930 c 128,-1,22
 264 1020 264 1020 393 1020 c 0,8,9
393 813 m 128,-1,24
 350 813 350 813 320 783.5 c 128,-1,25
 290 754 290 754 290 713 c 2,26,-1
 290 305 l 2,27,28
 290 262 290 262 320 232.5 c 128,-1,29
 350 203 350 203 393 203 c 0,30,31
 434 203 434 203 464.5 231.5 c 128,-1,32
 495 260 495 260 495 301 c 2,33,-1
 495 711 l 2,34,35
 495 754 495 754 465.5 783.5 c 128,-1,23
 436 813 436 813 393 813 c 128,-1,24
EndSplineSet
Validated: 1
EndChar

StartChar: OE
Encoding: 338 338 141
Width: 1210
Flags: W
LayerCount: 2
Fore
SplineSet
1174 0 m 1,0,-1
 559 0 l 1,1,-1
 559 78 l 1,2,3
 528 45 528 45 512 32.5 c 128,-1,4
 496 20 496 20 463 10 c 128,-1,5
 430 0 430 0 381 0 c 0,6,7
 256 0 256 0 177 89 c 128,-1,8
 98 178 98 178 98 307 c 2,9,-1
 98 1126 l 2,10,11
 98 1255 98 1255 177 1344.5 c 128,-1,12
 256 1434 256 1434 381 1434 c 0,13,14
 483 1434 483 1434 559 1356 c 1,15,-1
 559 1434 l 1,16,-1
 1174 1434 l 1,17,-1
 1174 1229 l 1,18,-1
 764 1229 l 1,19,-1
 764 819 l 1,20,-1
 1071 819 l 1,21,-1
 1071 614 l 1,22,-1
 764 614 l 1,23,-1
 764 205 l 1,24,-1
 1174 205 l 1,25,-1
 1174 0 l 1,0,-1
405.5 1229 m 128,-1,27
 362 1229 362 1229 332.5 1199 c 128,-1,28
 303 1169 303 1169 303 1126 c 2,29,-1
 303 838 l 1,30,-1
 303 596 l 1,31,-1
 303 307 l 2,32,33
 303 264 303 264 332.5 234.5 c 128,-1,34
 362 205 362 205 405.5 205 c 128,-1,35
 449 205 449 205 478.5 234.5 c 128,-1,36
 508 264 508 264 508 307 c 2,37,-1
 508 596 l 1,38,-1
 508 838 l 1,39,-1
 508 1126 l 2,40,41
 508 1169 508 1169 478.5 1199 c 128,-1,26
 449 1229 449 1229 405.5 1229 c 128,-1,27
EndSplineSet
Validated: 1
EndChar

StartChar: oe
Encoding: 339 339 142
Width: 1157
Flags: W
LayerCount: 2
Fore
SplineSet
784 1028 m 0,0,1
 911 1028 911 1028 1001.5 938 c 128,-1,2
 1092 848 1092 848 1092 721 c 2,3,-1
 1092 618 l 1,4,-1
 1092 414 l 1,5,-1
 887 414 l 1,6,-1
 682 414 l 1,7,-1
 682 311 l 2,8,9
 682 307 682 307 682 303 c 0,10,11
 686 264 686 264 714.5 236.5 c 128,-1,12
 743 209 743 209 784 209 c 0,13,14
 827 209 827 209 857 238.5 c 128,-1,15
 887 268 887 268 887 311 c 1,16,-1
 1092 311 l 1,17,18
 1092 184 1092 184 1001.5 94 c 128,-1,19
 911 4 911 4 784 4 c 0,20,21
 667 4 667 4 580 82 c 1,22,23
 492 4 492 4 375 4 c 0,24,25
 250 4 250 4 160 91 c 128,-1,26
 70 178 70 178 68 303 c 1,27,-1
 68 311 l 1,28,-1
 68 715 l 2,29,30
 68 844 68 844 158 936 c 128,-1,31
 248 1028 248 1028 375 1028 c 0,32,33
 484 1028 484 1028 578 948 c 1,34,35
 665 1028 665 1028 784 1028 c 0,0,1
375 209 m 0,36,37
 416 209 416 209 445.5 236.5 c 128,-1,38
 475 264 475 264 477 305 c 0,39,40
 477 309 477 309 477 311 c 2,41,-1
 477 721 l 1,42,43
 477 721 477 721 477 723 c 0,44,45
 475 762 475 762 445.5 789.5 c 128,-1,46
 416 817 416 817 375 817 c 256,47,48
 334 817 334 817 303 788.5 c 128,-1,49
 272 760 272 760 272 717 c 2,50,-1
 272 311 l 2,51,52
 272 268 272 268 302 238.5 c 128,-1,53
 332 209 332 209 375 209 c 0,36,37
887 618 m 1,54,-1
 887 721 l 2,55,56
 887 764 887 764 857 793.5 c 128,-1,57
 827 823 827 823 784 823 c 0,58,59
 743 823 743 823 713.5 795.5 c 128,-1,60
 684 768 684 768 682 727 c 0,61,62
 682 723 682 723 682 721 c 2,63,-1
 682 618 l 1,64,-1
 887 618 l 1,54,-1
EndSplineSet
Validated: 1
EndChar
